<svg xmlns="http://www.w3.org/2000/svg" xmlns:xlink="http://www.w3.org/1999/xlink" width="126" height="126" viewBox="0 0 126 126">
  <defs>
    <style>
      .cls-1, .cls-9 {
        fill: #fff;
      }

      .cls-1 {
        stroke: #707070;
      }

      .cls-2 {
        clip-path: url(#clip-path);
      }

      .cls-3 {
        fill: #ffc9b0;
      }

      .cls-4 {
        fill: #093f68;
      }

      .cls-5 {
        fill: #68e1fd;
      }

      .cls-6 {
        fill: #725858;
      }

      .cls-7 {
        fill: #ffbc0e;
      }

      .cls-8 {
        fill: #ad7972;
      }

      .cls-10 {
        fill: #f56132;
      }

      .cls-11 {
        fill: #70cc40;
      }
    </style>
    <clipPath id="clip-path">
      <rect id="Rectangle_14" data-name="Rectangle 14" class="cls-1" width="126" height="126" transform="translate(1466 405)"/>
    </clipPath>
  </defs>
  <g id="Mask_Group_1" data-name="Mask Group 1" class="cls-2" transform="translate(-1466 -405)">
    <g id="_232_designer_outline" data-name="#232_designer_outline" transform="translate(1398.568 370.174)">
      <path id="Path_343" data-name="Path 343" class="cls-3" d="M167.615,136.779c2.941,3.678-5.107,11.237-8.9,7.076C154.245,138.964,164.778,133.231,167.615,136.779Z"/>
      <path id="Path_344" data-name="Path 344" class="cls-4" d="M161.439,145.728a4.2,4.2,0,0,1-3.215-1.435,4.109,4.109,0,0,1-1.031-4.3c.88-2.57,4.018-4.422,6.522-4.852,1.957-.339,3.5.1,4.409,1.239,1.767,2.211.307,5.4-2.048,7.409a7.474,7.474,0,0,1-4.637,1.944Zm3.483-9.418a6.051,6.051,0,0,0-.991.091c-2.465.43-4.878,2.178-5.5,3.991a2.863,2.863,0,0,0,.757,3c1.6,1.761,4.181.959,6.033-.62s3.111-4.057,1.878-5.609h0a2.707,2.707,0,0,0-2.178-.854Z"/>
      <path id="Path_345" data-name="Path 345" class="cls-5" d="M125.47,41.389s-3.111-5.765-5.615-5.218-1.52,2.244-.985,2.609,4.474.652,5.218,3.776Z"/>
      <path id="Path_346" data-name="Path 346" class="cls-4" d="M124.107,43.182a.776.776,0,0,1-.209,0,.652.652,0,0,1-.43-.463c-.5-2.081-2.8-2.713-4.031-3.052a3.261,3.261,0,0,1-.933-.339,2.217,2.217,0,0,1-.9-2.152c.111-.587.567-1.344,2.113-1.67,2.9-.613,5.981,4.931,6.326,5.563a.652.652,0,0,1-.157.809l-1.363,1.167a.652.652,0,0,1-.417.137Zm-3.913-6.411H120c-.652.137-1.057.372-1.109.652a.959.959,0,0,0,.352.776c.052,0,.326.1.548.163,1.213.339,3.587.991,4.618,3.059l.235-.2c-1.194-2.028-3.144-4.455-4.455-4.455Z"/>
      <path id="Path_347" data-name="Path 347" class="cls-5" d="M124.538,111.7h14.381a16.625,16.625,0,0,1,16.625,16.625v29.721h-47.63V128.32A16.625,16.625,0,0,1,124.538,111.7Z"/>
      <path id="Path_348" data-name="Path 348" class="cls-4" d="M155.569,158.7H107.913a.652.652,0,0,1-.652-.652V128.32a17.29,17.29,0,0,1,17.309-17.27h14.348A17.29,17.29,0,0,1,156.2,128.32v29.727A.652.652,0,0,1,155.569,158.7Zm-47-1.3h46.352V128.32a15.985,15.985,0,0,0-16-15.966H124.57A15.985,15.985,0,0,0,108.6,128.32Z"/>
      <path id="Path_349" data-name="Path 349" class="cls-4" d="M146.889,145.173a.652.652,0,0,1-.652-.652V121.309a.652.652,0,0,1,1.3,0V144.5a.652.652,0,0,1-.652.672Z"/>
      <path id="Path_350" data-name="Path 350" class="cls-4" d="M117.97,158.7a.652.652,0,0,1-.652-.652V121.309a.652.652,0,1,1,1.3,0v36.719a.652.652,0,0,1-.652.672Z"/>
      <path id="Path_351" data-name="Path 351" class="cls-4" d="M141.025,129.344H122.457l-4.487,4.337v24.366h27.542V133.681Z"/>
      <path id="Path_352" data-name="Path 352" class="cls-4" d="M145.512,158.7H117.97a.652.652,0,0,1-.652-.652V133.7a.652.652,0,0,1,.2-.47l4.494-4.337a.652.652,0,0,1,.45-.183h18.568a.652.652,0,0,1,.45.183l4.494,4.337a.652.652,0,0,1,.2.47v24.366A.652.652,0,0,1,145.512,158.7Zm-26.89-1.3H144.86V133.962l-4.1-3.965H122.725l-4.1,3.965Z"/>
      <path id="Path_353" data-name="Path 353" class="cls-4" d="M122.457,131.144a.652.652,0,0,1-.652-.652V111.7a.652.652,0,0,1,1.3,0v18.79A.652.652,0,0,1,122.457,131.144Z"/>
      <path id="Path_354" data-name="Path 354" class="cls-4" d="M141.13,131.144a.652.652,0,0,1-.652-.652V111.7a.652.652,0,1,1,1.3,0v18.79A.652.652,0,0,1,141.13,131.144Z"/>
      <path id="Path_355" data-name="Path 355" class="cls-6" d="M104.352,106.387c.7,1.559,2.211,2.074,4.833,1.957,5.635-.261,11.335,0,16.957,0h31.116a2.586,2.586,0,0,0,2.909-2.778,194.854,194.854,0,0,0-.528-24.06c-.443-7.239-1.428-14.661-5.074-21.073-7.037-12.392-25.886-18.04-34.045-7.442,0,0-5.824-1.957-11.348,4.865-4.526,5.576-4.957,12.985-5.035,19.84l-.293,25.481a7.885,7.885,0,0,0,.509,3.209Z"/>
      <path id="Path_356" data-name="Path 356" class="cls-4" d="M108.4,109.015c-1.891,0-3.783-.4-4.67-2.361a8.342,8.342,0,0,1-.548-3.5l.293-25.488c.078-7.109.548-14.531,5.178-20.218,4.911-6.059,10.07-5.524,11.609-5.218,3.189-3.913,8.074-5.824,13.807-5.433a27.386,27.386,0,0,1,21.053,13.292c3.8,6.672,4.742,14.538,5.159,21.353a203.226,203.226,0,0,1,.528,24.131,3.228,3.228,0,0,1-3.561,3.391H126.136c-1.833,0-3.665,0-5.5-.052-3.763-.052-7.65-.1-11.446.072C108.917,109,108.67,109.015,108.4,109.015Zm10.07-55.659c-2.028,0-5.439.744-8.8,4.892-4.37,5.381-4.807,12.555-4.885,19.436l-.293,25.481a7.174,7.174,0,0,0,.437,2.954h0c.4.9,1.194,1.709,4.2,1.572,3.835-.176,7.742-.124,11.524-.072,1.833,0,3.659.052,5.485.052h31.116c1.513,0,2.172-.652,2.257-2.165a195.546,195.546,0,0,0-.522-23.968c-.437-7.011-1.344-14.348-5-20.8a26.02,26.02,0,0,0-20.01-12.633c-5.446-.372-10.044,1.494-12.946,5.263a.652.652,0,0,1-.724.222,6.365,6.365,0,0,0-1.839-.235Z"/>
      <path id="Path_357" data-name="Path 357" class="cls-3" d="M127.792,111.7h7.663v4.389a3.261,3.261,0,0,1-3.261,3.261H131.04a3.261,3.261,0,0,1-3.261-3.261v-4.409Z"/>
      <path id="Path_358" data-name="Path 358" class="cls-4" d="M132.2,120h-1.154a3.913,3.913,0,0,1-3.913-3.913v-4.409a.652.652,0,0,1,.652-.652h7.663a.652.652,0,0,1,.652.652v4.409A3.913,3.913,0,0,1,132.2,120Zm-3.757-7.663v3.75a2.609,2.609,0,0,0,2.609,2.609h1.154a2.609,2.609,0,0,0,2.609-2.609v-3.757Z"/>
      <ellipse id="Ellipse_1" data-name="Ellipse 1" class="cls-3" cx="7.448" cy="6.418" rx="7.448" ry="6.418" transform="translate(102.272 85.373)"/>
      <path id="Path_359" data-name="Path 359" class="cls-4" d="M109.72,98.861c-4.468,0-8.1-3.17-8.1-7.07s3.633-7.07,8.1-7.07,8.1,3.17,8.1,7.07S114.181,98.861,109.72,98.861Zm0-12.835c-3.75,0-6.8,2.609-6.8,5.765s3.046,5.765,6.8,5.765,6.8-2.609,6.8-5.765S113.483,86.025,109.72,86.025Z"/>
      <ellipse id="Ellipse_2" data-name="Ellipse 2" class="cls-3" cx="7.448" cy="6.418" rx="7.448" ry="6.418" transform="translate(145.682 85.373)"/>
      <path id="Path_360" data-name="Path 360" class="cls-4" d="M153.13,98.861c-4.461,0-8.094-3.17-8.094-7.07s3.665-7.07,8.094-7.07,8.1,3.17,8.1,7.07S157.6,98.861,153.13,98.861Zm0-12.835c-3.744,0-6.789,2.609-6.789,5.765s3.046,5.765,6.789,5.765,6.8-2.609,6.8-5.765S156.88,86.025,153.13,86.025Z"/>
      <path id="Path_361" data-name="Path 361" class="cls-3" d="M145.284,72.753l-7.266-9.34s-1.637,5.752-2.641,9.313l-11.459-.033-2.7-8.342-3.17,8.322h-8.883V90.284a22.455,22.455,0,0,0,22.455,22.462h0a22.462,22.462,0,0,0,22.462-22.462V72.779Z"/>
      <path id="Path_362" data-name="Path 362" class="cls-4" d="M131.621,113.359a23.134,23.134,0,0,1-23.107-23.114V72.636a.652.652,0,0,1,.652-.652H117.6l3.02-7.9a.669.669,0,0,1,1.252.033L124.427,72l10.481.033c.985-3.554,2.478-8.772,2.478-8.772a.652.652,0,0,1,1.148-.222l7.07,9.092h8.479a.652.652,0,0,1,.652.652V90.251A23.14,23.14,0,0,1,131.621,113.359ZM109.817,73.3V90.258a21.808,21.808,0,1,0,43.616,0l0-16.827h-8.152a.652.652,0,0,1-.509-.248l-6.5-8.355c-.535,1.891-1.572,5.537-2.289,8.074a.652.652,0,0,1-.652.476h0l-11.407-.033a.652.652,0,0,1-.613-.45l-2.133-6.581-2.517,6.594a.652.652,0,0,1-.607.417h0Z"/>
      <path id="Path_363" data-name="Path 363" class="cls-4" d="M121.394,96.617a8,8,0,1,1,7.989-8A8,8,0,0,1,121.394,96.617Zm0-14.681a6.692,6.692,0,1,0,6.685,6.685A6.692,6.692,0,0,0,121.394,81.936Z"/>
      <path id="Path_364" data-name="Path 364" class="cls-4" d="M141.854,96.617a8,8,0,1,1,7.989-8,8,8,0,0,1-7.989,8Zm0-14.681a6.692,6.692,0,1,0,6.685,6.685,6.692,6.692,0,0,0-6.685-6.685Z"/>
      <circle id="Ellipse_3" data-name="Ellipse 3" class="cls-4" cx="2.081" cy="2.081" r="2.081" transform="translate(120.005 86.977)"/>
      <circle id="Ellipse_4" data-name="Ellipse 4" class="cls-4" cx="2.081" cy="2.081" r="2.081" transform="translate(138.514 86.54)"/>
      <path id="Path_365" data-name="Path 365" class="cls-4" d="M131.249,96.167A13.362,13.362,0,0,1,129.22,96a.662.662,0,0,1,.228-1.3,9.783,9.783,0,0,0,3.078.033c.124-.6-.652-2.824-1.754-4.911a.655.655,0,0,1,1.161-.607c.724,1.4,2.354,4.787,1.761,6.118a1.122,1.122,0,0,1-.757.652A6.985,6.985,0,0,1,131.249,96.167Z"/>
      <path id="Path_366" data-name="Path 366" class="cls-4" d="M115.6,81.258a1.307,1.307,0,0,1-.163-2.609l9.842-1.226a1.315,1.315,0,1,1,.326,2.609l-9.842,1.226Z"/>
      <path id="Path_367" data-name="Path 367" class="cls-4" d="M146.406,81.525a1.434,1.434,0,0,1-.235,0l-9.783-1.781a1.306,1.306,0,0,1,.47-2.57l9.783,1.787a1.309,1.309,0,1,1-.228,2.609Z"/>
      <path id="Path_368" data-name="Path 368" class="cls-4" d="M132.866,104.352A14.44,14.44,0,0,1,122.627,100a.652.652,0,0,1,.972-.867,13.092,13.092,0,0,0,15.333,2.518.654.654,0,0,1,.548,1.187,15.744,15.744,0,0,1-6.613,1.52Z"/>
      <path id="Path_369" data-name="Path 369" class="cls-4" d="M134.51,88.295a.652.652,0,0,1-.372-.117,4.285,4.285,0,0,0-5.068,0,.655.655,0,0,1-.809-1.03,5.622,5.622,0,0,1,6.626,0,.622.622,0,0,1-.378,1.148Z"/>
      <path id="Path_370" data-name="Path 370" class="cls-4" d="M114,87.2a.822.822,0,0,1-.176,0l-4.285-1.174a.652.652,0,1,1,.346-1.252l4.285,1.167a.658.658,0,0,1-.17,1.3Z"/>
      <path id="Path_371" data-name="Path 371" class="cls-4" d="M149.517,87.2a.658.658,0,1,1-.17-1.3l4.285-1.167a.652.652,0,1,1,.339,1.252l-4.285,1.174A.711.711,0,0,1,149.517,87.2Z"/>
      <path id="Path_372" data-name="Path 372" class="cls-5" d="M111.526,60.289c3.489-.913,11.087-5.615,16.7-6.229s18.822.913,22.768-1.213,5.159-9.711-.607-15.177-22.175.307-32.786,6.522-14.57,7.435-14.42,11.687S108.017,61.2,111.526,60.289Z"/>
      <path id="Path_373" data-name="Path 373" class="cls-4" d="M109.146,61.242a7.826,7.826,0,0,1-4.611-1.35,5.009,5.009,0,0,1-2.028-3.985c-.137-3.841,2.661-5.42,9.431-9.229,1.552-.88,3.307-1.872,5.309-3.039,10.024-5.87,27.236-12.437,33.562-6.437a12.176,12.176,0,0,1,4.063,10.435,7.577,7.577,0,0,1-3.594,5.8c-2.661,1.435-8.818,1.3-14.766,1.2a76.1,76.1,0,0,0-8.237.091c-3.418.372-7.729,2.367-11.192,3.972a38.172,38.172,0,0,1-5.413,2.231h0a9.855,9.855,0,0,1-2.524.307Zm34.221-25.11a31.5,31.5,0,0,0-7.416,1.044A73.151,73.151,0,0,0,117.9,44.747c-2.009,1.18-3.776,2.172-5.328,3.052-6.457,3.652-8.876,5.028-8.766,8.061a3.711,3.711,0,0,0,1.507,2.987,7.376,7.376,0,0,0,6.026.809h0a37.926,37.926,0,0,0,5.218-2.159c3.554-1.644,7.97-3.691,11.6-4.083a75.933,75.933,0,0,1,8.407-.1c5.511.1,11.74.228,14.12-1.044a6.3,6.3,0,0,0,2.922-4.826,10.951,10.951,0,0,0-3.665-9.3C148.343,36.66,145.949,36.132,143.367,36.132Z"/>
      <path id="Path_374" data-name="Path 374" class="cls-3" d="M116.9,158.093c-2.3,2.1-7.409,3.639-9.953-.652s-7.624-22.71-7.624-22.71l5.955-5.361,11.883,19.507C118.8,151.643,119.2,156,116.9,158.093Z"/>
      <path id="Path_375" data-name="Path 375" class="cls-4" d="M111.65,160.826a7.048,7.048,0,0,1-.978-.072,5.935,5.935,0,0,1-4.291-3.007c-2.557-4.344-7.474-22.116-7.683-22.866a.652.652,0,0,1,.189-.652l5.955-5.361a.652.652,0,0,1,.991.143l11.89,19.507c1.787,3.052,2.146,7.755-.378,10.063a8.9,8.9,0,0,1-5.694,2.244Zm-11.59-25.905c.75,2.674,5.178,18.307,7.448,22.175a4.565,4.565,0,0,0,3.365,2.368,7.37,7.37,0,0,0,5.6-1.846c1.957-1.813,1.67-5.824.137-8.433l-11.472-18.829Z"/>
      <rect id="Rectangle_17" data-name="Rectangle 17" class="cls-5" width="5.446" height="6.737" transform="translate(94.661 119.472) rotate(-20.22)"/>
      <path id="Path_376" data-name="Path 376" class="cls-4" d="M97,126.442a.652.652,0,0,1-.613-.424l-2.328-6.326a.652.652,0,0,1,.391-.835l5.107-1.885a.622.622,0,0,1,.835.365l2.328,6.326a.652.652,0,0,1-.385.835l-5.107,1.885A.653.653,0,0,1,97,126.442Zm-1.487-6.587,1.872,5.1,3.913-1.435-1.878-5.1Z"/>
      <path id="Path_377" data-name="Path 377" class="cls-7" d="M99.441,117.709a5.7,5.7,0,0,0-.574-4.22c-1.957-3.476-3.815.972-5.8-5.87,0,0-2.713,4.05-1.6,7.357,1.213,3.633,3.77,4.3,3.77,4.3Z"/>
      <path id="Path_378" data-name="Path 378" class="cls-4" d="M95.221,119.907a.652.652,0,0,1-.163,0c-.124,0-2.915-.809-4.226-4.728-1.2-3.574,1.559-7.755,1.676-7.931a.656.656,0,0,1,1.174.183c1.05,3.62,1.957,3.718,2.876,3.822a3.215,3.215,0,0,1,2.863,1.957,6.313,6.313,0,0,1,.652,4.735.652.652,0,0,1-.391.417l-4.2,1.546a.7.7,0,0,1-.261,0Zm-2.322-10.7c-.652,1.376-1.474,3.626-.835,5.537a5.887,5.887,0,0,0,3.15,3.815l3.652-1.35a5.139,5.139,0,0,0-.587-3.411,1.957,1.957,0,0,0-1.872-1.3c-1.311-.117-2.439-.483-3.489-3.287Zm6.522,8.479Zm0,0Z"/>
      <path id="Path_379" data-name="Path 379" class="cls-8" d="M97.51,125.6c.92,3.215,2.146,6.959,3.607,10.918,2.9,7.892,5.955,14.531,7.976,17.609l2.2-.809c-.47-3.665-2.452-10.7-5.361-18.588-1.461-3.959-2.954-7.6-4.337-10.65Z"/>
      <path id="Path_380" data-name="Path 380" class="cls-4" d="M109.094,154.793a.652.652,0,0,1-.548-.293c-2.126-3.261-5.218-10.057-8.042-17.753-1.415-3.835-2.667-7.631-3.62-10.963a.652.652,0,0,1,.4-.8l4.083-1.507a.652.652,0,0,1,.822.346c1.441,3.163,2.948,6.861,4.357,10.7,2.837,7.7,4.9,14.87,5.394,18.725a.652.652,0,0,1-.411.672l-2.2.815a.652.652,0,0,1-.228.059ZM98.306,126.005c.92,3.163,2.1,6.7,3.424,10.292a109.529,109.529,0,0,0,7.631,17.049l1.213-.443c-.587-3.874-2.57-10.65-5.257-17.929-1.3-3.587-2.72-7.044-4.07-10.057Z"/>
      <rect id="Rectangle_18" data-name="Rectangle 18" class="cls-3" width="7.155" height="2.55" rx="1.128" transform="translate(95.886 129.791) rotate(-20.22)"/>
      <path id="Path_381" data-name="Path 381" class="cls-4" d="M97.445,132.508a1.787,1.787,0,0,1-.75-.163,1.754,1.754,0,0,1-.92-1l-.1-.28a1.78,1.78,0,0,1,1.057-2.283l4.565-1.7a1.794,1.794,0,0,1,2.289,1.057l.1.274a1.735,1.735,0,0,1-.052,1.363,1.781,1.781,0,0,1-1,.926L98.058,132.4a1.67,1.67,0,0,1-.613.111Zm4.494-4.226a.522.522,0,0,0-.17.033L97.2,130a.476.476,0,0,0-.28.613l.1.28a.522.522,0,0,0,.248.267.476.476,0,0,0,.365,0l4.565-1.7h0a.437.437,0,0,0,.267-.248.456.456,0,0,0,0-.359l-.1-.28a.476.476,0,0,0-.248-.267.535.535,0,0,0-.176-.033Z"/>
      <rect id="Rectangle_19" data-name="Rectangle 19" class="cls-3" width="7.696" height="2.367" rx="1.184" transform="translate(104.817 126.463) rotate(69.78)"/>
      <path id="Path_382" data-name="Path 382" class="cls-4" d="M105.956,134.829a1.852,1.852,0,0,1-1.722-1.2l-1.839-5a1.833,1.833,0,0,1,1.089-2.361,1.865,1.865,0,0,1,1.4.059,1.826,1.826,0,0,1,.959,1.037l1.839,5a1.839,1.839,0,0,1-1.089,2.361,1.956,1.956,0,0,1-.639.111Zm-1.839-7.37a.6.6,0,0,0-.183,0,.548.548,0,0,0-.3.28.515.515,0,0,0,0,.4l1.839,5h0a.515.515,0,0,0,.274.3.528.528,0,0,0,.724-.652l-1.852-4.957a.528.528,0,0,0-.28-.3.5.5,0,0,0-.222-.072Z"/>
      <rect id="Rectangle_20" data-name="Rectangle 20" class="cls-3" width="7.155" height="2.55" rx="1.128" transform="translate(96.77 132.189) rotate(-20.22)"/>
      <path id="Path_383" data-name="Path 383" class="cls-4" d="M98.326,134.9a1.781,1.781,0,0,1-1.67-1.161l-.1-.28a1.787,1.787,0,0,1,1.057-2.283l4.565-1.7a1.794,1.794,0,0,1,2.289,1.057l.1.274a1.787,1.787,0,0,1-1.057,2.289h0l-4.6,1.689a1.643,1.643,0,0,1-.587.111Zm4.494-4.226a.456.456,0,0,0-.163,0l-4.6,1.722a.5.5,0,0,0-.267.248.476.476,0,0,0,0,.365l.1.274a.463.463,0,0,0,.607.287l4.6-1.7a.476.476,0,0,0,.28-.607l-.1-.28a.457.457,0,0,0-.248-.267A.509.509,0,0,0,102.819,130.675Zm.489,1.813Z"/>
      <rect id="Rectangle_21" data-name="Rectangle 21" class="cls-3" width="7.155" height="2.55" rx="1.128" transform="translate(97.648 134.581) rotate(-20.22)"/>
      <path id="Path_384" data-name="Path 384" class="cls-4" d="M99.206,137.295a1.735,1.735,0,0,1-.744-.163,1.761,1.761,0,0,1-.926-1l-.1-.28a1.787,1.787,0,0,1,1.057-2.283l4.6-1.7a1.787,1.787,0,0,1,2.283,1.057l.1.28a1.787,1.787,0,0,1-1.057,2.283l-4.565,1.689a1.7,1.7,0,0,1-.646.111Zm4.494-4.246a.483.483,0,0,0-.163.033l-4.6,1.689a.522.522,0,0,0-.267.248.476.476,0,0,0,0,.365l.1.28a.5.5,0,0,0,.248.267.457.457,0,0,0,.359,0l4.565-1.7h0a.47.47,0,0,0,.28-.607l-.1-.28a.47.47,0,0,0-.424-.3Z"/>
      <rect id="Rectangle_22" data-name="Rectangle 22" class="cls-3" width="7.155" height="2.55" rx="1.128" transform="translate(98.538 136.97) rotate(-20.22)"/>
      <path id="Path_385" data-name="Path 385" class="cls-4" d="M100.087,139.688a1.781,1.781,0,0,1-1.67-1.161l-.1-.28a1.781,1.781,0,0,1,1.05-2.283l4.565-1.7a1.78,1.78,0,0,1,2.283,1.057l.1.28a1.774,1.774,0,0,1-1.057,2.283l-4.565,1.689A1.7,1.7,0,0,1,100.087,139.688Zm4.494-4.22a.476.476,0,0,0-.163,0l-4.565,1.689a.476.476,0,0,0-.287.613l.1.28a.5.5,0,0,0,.248.267.47.47,0,0,0,.365,0l4.565-1.7h0a.47.47,0,0,0,.28-.607l-.1-.28a.483.483,0,0,0-.45-.267Z"/>
      <path id="Path_386" data-name="Path 386" class="cls-9" d="M163.7,126.944c-5-1.885-15.079-3.118-23.773,5.739s-5.739,19.566,3.444,23.792,17.035,2.191,18.855-3.548-4.272-6.183-1.787-9.209,5.589.372,8.218-4.428S168.711,128.829,163.7,126.944Z"/>
      <path id="Path_387" data-name="Path 387" class="cls-4" d="M152.68,159.385a23.153,23.153,0,0,1-9.574-2.315,14.888,14.888,0,0,1-8.8-10.67c-.887-4.846.952-9.881,5.165-14.172,7.983-8.139,17.877-8.381,24.471-5.87h0a9.881,9.881,0,0,1,5.818,5.765,8.942,8.942,0,0,1-.561,7.507,5.5,5.5,0,0,1-5.218,3.261,3.65,3.65,0,0,0-3.072,1.265c-.77.946-.5,1.35.457,2.5a6.111,6.111,0,0,1,1.48,6.522,8.44,8.44,0,0,1-4.839,5.218A13.142,13.142,0,0,1,152.68,159.385Zm3.515-33.132a21.827,21.827,0,0,0-15.79,6.887c-3.913,3.985-5.622,8.609-4.813,13.044a13.605,13.605,0,0,0,8.061,9.724c5.218,2.394,10.24,2.857,13.846,1.265a7.174,7.174,0,0,0,4.115-4.422c.867-2.733-.2-4.018-1.239-5.263-.913-1.1-1.957-2.341-.463-4.161a4.946,4.946,0,0,1,3.991-1.748,4.188,4.188,0,0,0,4.155-2.609,7.683,7.683,0,0,0,.483-6.424,8.6,8.6,0,0,0-5.061-5h0a20.792,20.792,0,0,0-7.285-1.291Z"/>
      <path id="Path_388" data-name="Path 388" class="cls-7" d="M149.113,130.577c.052.254.183.489.235.744a1.957,1.957,0,0,1-.939,1.728,5.465,5.465,0,0,0-1.552,1.357,2.191,2.191,0,0,0,.711,2.765,3.163,3.163,0,0,0,2.994.228c1.017-.417,2.1-1.259,3.078-.77a5.216,5.216,0,0,1,.939.8,3.15,3.15,0,0,0,4.311-.391,3.594,3.594,0,0,0,0-4.448c-1.383-1.709-.222-4.565-3.215-4.839C154.134,127.6,148.7,128.3,149.113,130.577Z"/>
      <path id="Path_389" data-name="Path 389" class="cls-4" d="M156.469,138.762a3.463,3.463,0,0,1-2.322-.841,3.4,3.4,0,0,1-.313-.3,2.139,2.139,0,0,0-.483-.4c-.43-.215-.985,0-1.774.424-.261.13-.515.254-.77.359a3.8,3.8,0,0,1-3.62-.293,2.831,2.831,0,0,1-.894-3.633,4.161,4.161,0,0,1,1.337-1.265l.385-.274c.378-.287.757-.724.685-1.1a1.22,1.22,0,0,0-.085-.261,3.07,3.07,0,0,1-.143-.476h0a1.957,1.957,0,0,1,.528-1.748c1.48-1.617,5.609-1.957,6.718-1.846,2.354.235,2.687,1.865,2.954,3.17a4.363,4.363,0,0,0,.7,1.911,4.252,4.252,0,0,1,0,5.276,3.828,3.828,0,0,1-2.609,1.3Zm-3.463-2.935a2.015,2.015,0,0,1,.926.222,3.19,3.19,0,0,1,.828.652,2.868,2.868,0,0,0,.248.241,2.25,2.25,0,0,0,1.663.509,2.485,2.485,0,0,0,1.722-.828,2.954,2.954,0,0,0-.033-3.62,5.439,5.439,0,0,1-.965-2.465c-.274-1.344-.463-2-1.807-2.133-1.135-.117-4.618.326-5.622,1.428a.652.652,0,0,0-.215.652h0a2.109,2.109,0,0,0,.085.267,3.1,3.1,0,0,1,.15.476,2.485,2.485,0,0,1-1.18,2.374l-.43.307a3.084,3.084,0,0,0-.952.861,1.533,1.533,0,0,0,.522,1.9,2.537,2.537,0,0,0,2.368.15,5.043,5.043,0,0,0,.652-.32A4.735,4.735,0,0,1,153.006,135.827Z"/>
      <path id="Path_390" data-name="Path 390" class="cls-4" d="M162.4,134.777a3.32,3.32,0,0,0-.907,1.957,1.624,1.624,0,0,0,.5,1.357,1.761,1.761,0,0,0,1.1.326,4.728,4.728,0,0,0,2.785-1.037c1.044-.8,2.785-3.072,1.167-4.161C165.568,132.273,163.33,133.734,162.4,134.777Z"/>
      <path id="Path_391" data-name="Path 391" class="cls-4" d="M163.083,139.088h0a2.374,2.374,0,0,1-1.507-.47,2.244,2.244,0,0,1-.737-1.9,3.972,3.972,0,0,1,1.076-2.374h0c1.167-1.3,3.685-2.85,5.485-1.644a2.022,2.022,0,0,1,.952,1.663c.039,1.4-1.259,2.922-2.087,3.554A5.315,5.315,0,0,1,163.083,139.088Zm-.228-3.868a2.609,2.609,0,0,0-.737,1.578,1,1,0,0,0,.28.815,1.187,1.187,0,0,0,.691.176,3.913,3.913,0,0,0,2.387-.907,4.031,4.031,0,0,0,1.572-2.478.711.711,0,0,0-.372-.613c-.991-.652-2.876.424-3.8,1.435Z"/>
      <path id="Path_392" data-name="Path 392" class="cls-3" d="M166.631,132.051c-.261-.607-.763-1.3-1.409-1.154s-.867.848-.972,1.5c-.3,1.7-.352,3.424-.652,5.12a.522.522,0,0,0,.065.457.444.444,0,0,0,.3.1,3.515,3.515,0,0,0,3.2-1.865C167.733,135.005,167.126,133.212,166.631,132.051Z"/>
      <path id="Path_393" data-name="Path 393" class="cls-4" d="M164.152,138.716h-.261a1.076,1.076,0,0,1-.7-.293,1.135,1.135,0,0,1-.241-1.037c.157-.848.248-1.728.339-2.576s.176-1.689.326-2.544c.209-1.18.7-1.852,1.487-2s1.65.417,2.133,1.546h0c.874,2.054,1.044,3.587.5,4.676A4.239,4.239,0,0,1,164.152,138.716Zm1.213-7.174h0c-.13,0-.333.287-.443.946-.143.8-.228,1.637-.313,2.446s-.176,1.65-.32,2.478a2.954,2.954,0,0,0,2.3-1.507c.241-.5.346-1.52-.535-3.594-.215-.45-.5-.783-.691-.783Z"/>
      <path id="Path_394" data-name="Path 394" class="cls-10" d="M140.94,137.647c-1.2.43-2.381,1.37-2.348,2.57a15.911,15.911,0,0,0,.333,1.715c.183,1.389-.587,2.954.189,4.115a3.013,3.013,0,0,0,2.322,1.076c1.3.111,2.844-.228,3.489-1.383a1.65,1.65,0,0,1,.45-.652,1.565,1.565,0,0,1,.691-.17,2.433,2.433,0,0,0,1.872-1.48c.515-1.3-.391-2.7-1.3-3.62-1.083-1.122-2.765-2.446-4.4-2.433a4.226,4.226,0,0,0-1.291.261Z"/>
      <path id="Path_395" data-name="Path 395" class="cls-4" d="M141.932,147.8h-.548a3.568,3.568,0,0,1-2.811-1.37,4.08,4.08,0,0,1-.365-2.915,6.067,6.067,0,0,0,.072-1.474c-.033-.2-.085-.417-.143-.652a4.853,4.853,0,0,1-.2-1.141c-.039-1.611,1.474-2.726,2.785-3.2h0a4.774,4.774,0,0,1,1.526-.293h0c2.009,0,3.913,1.644,4.852,2.609,1.422,1.48,1.924,3.007,1.415,4.318a3.078,3.078,0,0,1-2.381,1.885h-.163a1.114,1.114,0,0,0-.267.046,1.428,1.428,0,0,0-.15.248c0,.059-.059.117-.091.176A3.775,3.775,0,0,1,141.932,147.8Zm.346-9.783h0a3.607,3.607,0,0,0-1.1.215h0c-.972.352-1.957,1.083-1.917,1.957a3.809,3.809,0,0,0,.15.848,5.792,5.792,0,0,1,.176.8,7.173,7.173,0,0,1-.065,1.8,3.006,3.006,0,0,0,.157,2.035,2.426,2.426,0,0,0,1.826.789c1.05.091,2.361-.143,2.87-1.05l.065-.13a1.794,1.794,0,0,1,.594-.744,1.839,1.839,0,0,1,.835-.254H146a1.768,1.768,0,0,0,1.357-1.076c.437-1.122-.652-2.42-1.141-2.928-.665-.672-2.348-2.231-3.933-2.231Zm-1.337-.4Z"/>
      <path id="Path_396" data-name="Path 396" class="cls-11" d="M146.921,151.037a2.941,2.941,0,0,0,1.194,2.1,5.817,5.817,0,0,0,2.263.985,11.968,11.968,0,0,0,6.431-.248,2.537,2.537,0,0,0,1.037-.554,1.865,1.865,0,0,0,0-2.348,4.7,4.7,0,0,0-2.094-1.409c-1.48-.613-1.65-3.013-3.691-3.078a2.794,2.794,0,0,0-1.957,1.128c-.939.913-.978.783-2.244.789C146.745,148.408,146.882,150.313,146.921,151.037Z"/>
      <path id="Path_397" data-name="Path 397" class="cls-4" d="M153.15,155.093a12.906,12.906,0,0,1-2.922-.333,6.307,6.307,0,0,1-2.511-1.109,3.587,3.587,0,0,1-1.448-2.609v-.091c-.039-.724-.117-2.081.554-2.791a1.363,1.363,0,0,1,1.024-.437h.417c.743,0,.743,0,1.383-.607l.183-.183a2.974,2.974,0,0,1,2.244-1.128,3.435,3.435,0,0,1,2.8,1.957,2.987,2.987,0,0,0,1.122,1.18,5.355,5.355,0,0,1,2.374,1.624,2.537,2.537,0,0,1-.052,3.2,2.987,2.987,0,0,1-1.3.717,12.392,12.392,0,0,1-3.861.613Zm-5.3-6.039a.1.1,0,0,0-.085,0,3.174,3.174,0,0,0-.2,1.826v.1h0a2.289,2.289,0,0,0,.939,1.617,5.126,5.126,0,0,0,2.015.867,11.381,11.381,0,0,0,6.079-.235,1.957,1.957,0,0,0,.776-.391,1.259,1.259,0,0,0-.072-1.507,4.252,4.252,0,0,0-1.826-1.193,4.089,4.089,0,0,1-1.7-1.657c-.561-.835-.952-1.344-1.761-1.37-.463,0-.783.261-1.3.757l-.2.189a2.485,2.485,0,0,1-2.3.972Z"/>
    </g>
  </g>
</svg>
