<svg xmlns="http://www.w3.org/2000/svg" xmlns:xlink="http://www.w3.org/1999/xlink" width="126" height="126" viewBox="0 0 126 126">
  <defs>
    <style>
      .cls-1, .cls-7 {
        fill: #fff;
      }

      .cls-1 {
        stroke: #707070;
      }

      .cls-2 {
        clip-path: url(#clip-path);
      }

      .cls-3 {
        fill: #68e1fd;
      }

      .cls-4 {
        fill: #093f68;
      }

      .cls-5 {
        fill: #ffc9b0;
      }

      .cls-6 {
        fill: #725858;
      }

      .cls-8 {
        fill: #f56132;
      }

      .cls-9 {
        fill: #ffbc0e;
      }
    </style>
    <clipPath id="clip-path">
      <rect id="Rectangle_26" data-name="Rectangle 26" class="cls-1" width="126" height="126" transform="translate(1466 170)"/>
    </clipPath>
  </defs>
  <g id="Mask_Group_2" data-name="Mask Group 2" class="cls-2" transform="translate(-1466 -170)">
    <g id="Web_Developer_Outline" data-name="Web Developer_Outline" transform="translate(1392.936 130.957)">
      <path id="Path_398" data-name="Path 398" class="cls-3" d="M149.861,110.348h11.851a20.886,20.886,0,0,1,19.933,14.763l6.4,20.879a4.987,4.987,0,0,1-4.762,6.456H128.248a4.987,4.987,0,0,1-4.762-6.456l6.4-20.879a20.886,20.886,0,0,1,19.974-14.763Z"/>
      <path id="Path_399" data-name="Path 399" class="cls-4" d="M183.306,153.127H128.268a5.674,5.674,0,0,1-5.443-7.334l6.436-20.879a21.457,21.457,0,0,1,20.614-15.246h11.838a21.457,21.457,0,0,1,20.614,15.246l6.4,20.879a5.674,5.674,0,0,1-5.443,7.334Zm-33.445-42.1a20.1,20.1,0,0,0-19.314,14.287l-6.4,20.879a4.32,4.32,0,0,0,4.123,5.579h55.038a4.32,4.32,0,0,0,4.123-5.579l-6.4-20.879a20.1,20.1,0,0,0-19.314-14.287Z"/>
      <path id="Path_400" data-name="Path 400" class="cls-5" d="M152.168,107.994h7.239v4.164a3.075,3.075,0,0,1-3.075,3.075h-1.1a3.075,3.075,0,0,1-3.075-3.075v-4.164Z"/>
      <path id="Path_401" data-name="Path 401" class="cls-4" d="M156.331,115.907h-1.089a3.755,3.755,0,0,1-3.755-3.749v-4.164a.68.68,0,0,1,.68-.68h7.239a.68.68,0,0,1,.68.68v4.164a3.755,3.755,0,0,1-3.755,3.749Zm-3.483-7.232v3.483a2.4,2.4,0,0,0,2.395,2.388h1.089a2.4,2.4,0,0,0,2.395-2.388v-3.483Z"/>
      <path id="Path_402" data-name="Path 402" class="cls-6" d="M130.806,87.918c-3.361-1.272-3.157-3.844-3.66-7.137a83.922,83.922,0,0,1-.932-9.851c-.129-3.749,0-7.6,1.429-11.076,1.83-4.47,5.443-7.354,10.266-6.96-.143-6.586,3.81-12.763,10.81-13.137,11.219-.6,17.688,11.45,23.954,10.552s7.946-3.687,7.946-3.687a11.511,11.511,0,0,1-1.361,12.7s4.946-1.442,5.545,5.136-3.34,24.063-3.34,24.063l-4.47-.762c-1.884-.333-4.238.129-6.123.19l-14.021.435C149.814,88.585,138.439,90.8,130.806,87.918Z"/>
      <path id="Path_403" data-name="Path 403" class="cls-4" d="M140.915,90.061a29.847,29.847,0,0,1-10.355-1.51h0c-3.259-1.238-3.558-3.592-3.905-6.32q-.082-.68-.184-1.361a85.042,85.042,0,0,1-.939-9.933c-.122-3.517-.041-7.626,1.483-11.348,1.939-4.762,5.558-7.422,10-7.422h.211c.15-6.334,4.034-12.708,11.457-13.1,6.524-.34,11.565,3.463,15.593,6.517,3.116,2.361,5.81,4.395,8.293,4.041,5.817-.83,7.484-3.34,7.484-3.368a.687.687,0,0,1,1.17.013,12.363,12.363,0,0,1-.517,12.246,4.647,4.647,0,0,1,2.368.776c1.361.952,2.211,2.667,2.429,5.109.605,6.613-3.184,23.553-3.347,24.274a.68.68,0,0,1-.782.517l-4.49-.748a16.117,16.117,0,0,0-3.993.054c-.68.068-1.361.129-2.041.15l-14.021.435c-1.748.054-3.8.238-5.973.429C147.786,89.755,144.324,90.061,140.915,90.061Zm-9.871-2.783c5.565,2.109,13.409,1.408,19.729.844,2.191-.2,4.266-.381,6.055-.435l14.021-.435c.592,0,1.238-.082,1.919-.143a17.008,17.008,0,0,1,4.354-.041h0c.238,0,1.014.17,3.844.68.68-3.184,3.7-17.518,3.184-23.219q-.276-3.061-1.83-4.082A3.715,3.715,0,0,0,179.476,60a.679.679,0,0,1-.714-1.082,10.7,10.7,0,0,0,1.7-11.048c-1.041.98-3.306,2.51-7.681,3.136-3.048.429-5.953-1.762-9.314-4.3-4.082-3.082-8.674-6.565-14.695-6.245-6.844.361-10.3,6.538-10.171,12.443a.688.688,0,0,1-.742.694c-4.245-.354-7.735,2.041-9.572,6.538-1.422,3.49-1.5,7.416-1.361,10.79a83.674,83.674,0,0,0,.918,9.769c.075.483.136.939.19,1.361.327,2.572.544,4.272,3.041,5.218Z"/>
      <ellipse id="Ellipse_5" data-name="Ellipse 5" class="cls-5" cx="7.028" cy="6.055" rx="7.028" ry="6.055" transform="translate(128.077 83.142)"/>
      <path id="Path_404" data-name="Path 404" class="cls-4" d="M135.105,95.925c-4.252,0-7.708-3.021-7.708-6.735s3.456-6.742,7.708-6.742,7.715,3.027,7.715,6.742S139.357,95.925,135.105,95.925Zm0-12.117c-3.5,0-6.347,2.415-6.347,5.381s2.851,5.375,6.347,5.375,6.354-2.408,6.354-5.375-2.851-5.375-6.354-5.375Z"/>
      <ellipse id="Ellipse_6" data-name="Ellipse 6" class="cls-5" cx="7.028" cy="6.055" rx="7.028" ry="6.055" transform="translate(169.067 83.142)"/>
      <path id="Path_405" data-name="Path 405" class="cls-4" d="M176.095,95.925c-4.252,0-7.715-3.021-7.715-6.735s3.463-6.742,7.715-6.742,7.708,3.027,7.708,6.742S180.347,95.925,176.095,95.925Zm0-12.117c-3.5,0-6.354,2.415-6.354,5.381s2.851,5.375,6.354,5.375,6.347-2.408,6.347-5.375-2.837-5.375-6.347-5.375Z"/>
      <path id="Path_406" data-name="Path 406" class="cls-5" d="M155.794,108.94h0a21.206,21.206,0,0,1-21.212-21.178V72.345c1.238,2.041,5.354,1.225,11.389-9.123,22.587,11.443,31.023,4.885,31.023,4.885V87.762a21.206,21.206,0,0,1-21.2,21.178Z"/>
      <path id="Path_407" data-name="Path 407" class="cls-4" d="M155.794,109.62A21.906,21.906,0,0,1,133.9,87.762V72.345a.68.68,0,0,1,1.265-.354,1.129,1.129,0,0,0,1.041.565h0c.83,0,3.946-.728,9.164-9.681a.68.68,0,0,1,.9-.286c21.825,11.055,30.22,5.014,30.3,4.953a.68.68,0,0,1,1.1.544V87.762a21.906,21.906,0,0,1-21.872,21.859ZM135.268,73.754V87.762a20.525,20.525,0,0,0,41.051,0V69.277c-2.939,1.361-11.967,3.864-30.077-5.164-3.755,6.307-7.3,9.783-10,9.8a2.34,2.34,0,0,1-.98-.163Z"/>
      <path id="Path_408" data-name="Path 408" class="cls-4" d="M169.4,147.439a.68.68,0,0,1-.68-.68V121.873a.68.68,0,1,1,1.361,0v24.886A.68.68,0,0,1,169.4,147.439Z"/>
      <path id="Path_409" data-name="Path 409" class="cls-4" d="M142.187,147.439a.68.68,0,0,1-.68-.68V121.873a.68.68,0,1,1,1.361,0v24.886A.68.68,0,0,1,142.187,147.439Z"/>
      <path id="Path_410" data-name="Path 410" class="cls-4" d="M155.739,91.633a14.117,14.117,0,0,1-2.129-.177.691.691,0,1,1,.238-1.361,10.4,10.4,0,0,0,3.232,0c.136-.626-.68-2.959-1.837-5.157a.68.68,0,1,1,1.231-.578c.762,1.463,2.469,5.014,1.844,6.409a1.17,1.17,0,0,1-.789.68,7.307,7.307,0,0,1-1.789.184Z"/>
      <path id="Path_411" data-name="Path 411" class="cls-4" d="M151.032,75.332h-10.4a1.361,1.361,0,0,1,0-2.721h10.4a1.361,1.361,0,0,1,0,2.721Z"/>
      <path id="Path_412" data-name="Path 412" class="cls-4" d="M170.251,75.332h-10.4a1.361,1.361,0,0,1,0-2.721h10.4a1.361,1.361,0,0,1,0,2.721Z"/>
      <path id="Path_413" data-name="Path 413" class="cls-7" d="M139.731,79.06h12.246a1.742,1.742,0,0,1,1.742,1.742v1.136a5.871,5.871,0,0,1-5.871,5.871h-3.993a5.871,5.871,0,0,1-5.871-5.871V80.8a1.742,1.742,0,0,1,1.748-1.742Z"/>
      <path id="Path_414" data-name="Path 414" class="cls-4" d="M147.854,88.5h-3.987a6.558,6.558,0,0,1-6.552-6.551V80.8a2.422,2.422,0,0,1,2.415-2.422h12.246A2.429,2.429,0,0,1,154.4,80.8v1.143A6.558,6.558,0,0,1,147.854,88.5Zm-8.123-8.756a1.055,1.055,0,0,0-1.054,1.061v1.143a5.2,5.2,0,0,0,5.191,5.191h3.987a5.2,5.2,0,0,0,5.2-5.191V80.8a1.061,1.061,0,0,0-1.061-1.061Z"/>
      <path id="Path_415" data-name="Path 415" class="cls-7" d="M159.5,79.06h12.246a1.742,1.742,0,0,1,1.742,1.742v1.136a5.871,5.871,0,0,1-5.871,5.871h-3.993a5.871,5.871,0,0,1-5.871-5.871V80.8A1.742,1.742,0,0,1,159.5,79.06Z"/>
      <path id="Path_416" data-name="Path 416" class="cls-4" d="M167.625,88.5h-3.987a6.558,6.558,0,0,1-6.558-6.551V80.8A2.429,2.429,0,0,1,159.5,78.38h12.246a2.422,2.422,0,0,1,2.415,2.422v1.143a6.558,6.558,0,0,1-6.538,6.551ZM159.5,79.741A1.061,1.061,0,0,0,158.44,80.8v1.143a5.2,5.2,0,0,0,5.2,5.191h3.987a5.2,5.2,0,0,0,5.191-5.191V80.8a1.055,1.055,0,0,0-1.055-1.061Z"/>
      <path id="Path_417" data-name="Path 417" class="cls-4" d="M138,82.625h-3.973a.68.68,0,0,1,0-1.361h3.953a.68.68,0,0,1,0,1.361Z"/>
      <path id="Path_418" data-name="Path 418" class="cls-4" d="M177.646,82.625H173.7a.68.68,0,0,1,0-1.361h3.946a.68.68,0,1,1,0,1.361Z"/>
      <path id="Path_419" data-name="Path 419" class="cls-4" d="M157.76,82.625h-4.007a.68.68,0,1,1,0-1.361h4.028a.68.68,0,0,1,0,1.361Z"/>
      <path id="Path_420" data-name="Path 420" class="cls-4" d="M155.338,98.191a19.641,19.641,0,0,1-7.1-1.3.682.682,0,0,1,.49-1.272,19.886,19.886,0,0,0,13.45,0,.682.682,0,0,1,.524,1.259,20.791,20.791,0,0,1-7.361,1.313Z"/>
      <path id="Path_421" data-name="Path 421" class="cls-4" d="M174.441,141.725a.68.68,0,0,1-.15-1.347l7.524-1.538a.694.694,0,1,1,.272,1.361l-7.524,1.531a.435.435,0,0,1-.122-.007Z"/>
      <path id="Path_422" data-name="Path 422" class="cls-4" d="M137.133,141.725a.436.436,0,0,1-.136,0l-7.524-1.578a.694.694,0,0,1,.272-1.361l7.524,1.538a.712.712,0,0,1-.136,1.4Z"/>
      <path id="Path_423" data-name="Path 423" class="cls-8" d="M136.582,127.465h38.329a3.252,3.252,0,0,1,3.252,3.252v22.355h-44.82V130.717a3.252,3.252,0,0,1,3.238-3.252Z"/>
      <path id="Path_424" data-name="Path 424" class="cls-4" d="M178.163,153.753h-44.82a.68.68,0,0,1-.68-.68V130.717a3.932,3.932,0,0,1,3.932-3.932h38.316a3.932,3.932,0,0,1,3.932,3.932v22.355A.68.68,0,0,1,178.163,153.753Zm-44.139-1.361H177.5V130.717a2.578,2.578,0,0,0-2.572-2.572H136.582a2.578,2.578,0,0,0-2.572,2.572Z"/>
      <path id="Path_425" data-name="Path 425" class="cls-8" d="M131.153,153.073h49.194a3.279,3.279,0,0,1-3.279,3.279H134.432a3.279,3.279,0,0,1-3.279-3.279Z"/>
      <path id="Path_426" data-name="Path 426" class="cls-4" d="M177.061,157.046H134.432a3.966,3.966,0,0,1-3.959-3.959.68.68,0,0,1,.68-.68H180.34a.68.68,0,0,1,.68.68A3.966,3.966,0,0,1,177.061,157.046Zm-45.139-3.293a2.606,2.606,0,0,0,2.51,1.919h42.629a2.606,2.606,0,0,0,2.544-1.919Z"/>
      <path id="Path_427" data-name="Path 427" class="cls-4" d="M155.243,128.146a.68.68,0,0,1-.68-.68V115.219a.68.68,0,1,1,1.361,0v12.246A.68.68,0,0,1,155.243,128.146Z"/>
      <path id="Path_428" data-name="Path 428" class="cls-9" d="M90.728,136.684h19.049v13.43a6.252,6.252,0,0,1-6.252,6.252H96.98a6.252,6.252,0,0,1-6.252-6.252Z"/>
      <path id="Path_429" data-name="Path 429" class="cls-4" d="M103.525,157.046H96.98a6.939,6.939,0,0,1-6.932-6.932v-13.43a.68.68,0,0,1,.68-.68h19.049a.68.68,0,0,1,.68.68v13.43A6.939,6.939,0,0,1,103.525,157.046ZM91.408,137.364v12.749a5.572,5.572,0,0,0,5.572,5.572h6.545a5.579,5.579,0,0,0,5.572-5.572V137.364Z"/>
      <rect id="Rectangle_27" data-name="Rectangle 27" class="cls-6" width="121.764" height="7.994" rx="3.997" transform="translate(75.182 156.365)"/>
      <path id="Path_430" data-name="Path 430" class="cls-4" d="M192.946,165.039H79.183a4.681,4.681,0,1,1,0-9.354H192.946a4.681,4.681,0,1,1,0,9.354ZM79.183,157.046a3.32,3.32,0,1,0,0,6.633H192.946a3.32,3.32,0,1,0,0-6.633Z"/>
      <path id="Path_431" data-name="Path 431" class="cls-4" d="M110.893,150.351h-1.109a.68.68,0,0,1-.68-.68v-10.8a.68.68,0,0,1,.68-.68h1.109a6.123,6.123,0,1,1,0,12.157Zm-.429-1.361h.429a4.762,4.762,0,1,0,0-9.463h-.429Z"/>
      <rect id="Rectangle_28" data-name="Rectangle 28" class="cls-7" width="43.731" height="36.785" rx="1.701" transform="translate(77.026 76.863)"/>
      <path id="Path_432" data-name="Path 432" class="cls-4" d="M119.056,114.328H78.72a2.381,2.381,0,0,1-2.374-2.381V78.557a2.374,2.374,0,0,1,2.374-2.374h40.336a2.381,2.381,0,0,1,2.381,2.374v33.39a2.381,2.381,0,0,1-2.381,2.381ZM78.72,77.557a1.014,1.014,0,0,0-1.014,1.014v33.39a1.02,1.02,0,0,0,1.014,1.02h40.336a1.02,1.02,0,0,0,1.02-1.02v-33.4a1.02,1.02,0,0,0-1.02-1Z"/>
      <path id="Path_433" data-name="Path 433" class="cls-3" d="M78.72,76.876h40.336a1.7,1.7,0,0,1,1.7,1.7v2.946H77.026V78.577a1.7,1.7,0,0,1,1.694-1.7Z"/>
      <path id="Path_434" data-name="Path 434" class="cls-4" d="M120.757,82.19H77.026a.68.68,0,0,1-.68-.68V78.557a2.374,2.374,0,0,1,2.374-2.374h40.336a2.381,2.381,0,0,1,2.381,2.374v2.953A.68.68,0,0,1,120.757,82.19ZM77.706,80.829h42.37V78.557a1.02,1.02,0,0,0-1.02-1H78.72a1.014,1.014,0,0,0-1.014,1.014Z"/>
      <circle id="Ellipse_7" data-name="Ellipse 7" class="cls-4" cx="0.912" cy="0.912" r="0.912" transform="translate(79.509 78.271)"/>
      <circle id="Ellipse_8" data-name="Ellipse 8" class="cls-4" cx="0.912" cy="0.912" r="0.912" transform="translate(82.06 78.271)"/>
      <circle id="Ellipse_9" data-name="Ellipse 9" class="cls-4" cx="0.912" cy="0.912" r="0.912" transform="translate(84.618 78.271)"/>
      <path id="Path_435" data-name="Path 435" class="cls-4" d="M93.265,94.327,86.972,97.2v.048l6.293,2.871v3.143L83.217,98.681V95.762l10.048-4.6Z"/>
      <path id="Path_436" data-name="Path 436" class="cls-4" d="M100.729,86.625l2.259.81L97.034,105.45l-2.245-.81Z"/>
      <path id="Path_437" data-name="Path 437" class="cls-4" d="M104.518,100.116l6.293-2.871V97.2l-6.293-2.871V91.163l10.042,4.579V98.66l-10.042,4.579Z"/>
    </g>
  </g>
</svg>
