<svg xmlns="http://www.w3.org/2000/svg" width="18.657" height="18.657" viewBox="0 0 18.657 18.657">
  <defs>
    <style>
      .cls-1 {
        fill: #fff;
      }
    </style>
  </defs>
  <path id="Icon_simple-dribbble" data-name="Icon simple-dribbble" class="cls-1" d="M9.328,18.657a9.328,9.328,0,1,1,9.328-9.328A9.341,9.341,0,0,1,9.328,18.657ZM17.2,10.6a11.686,11.686,0,0,0-4.963-.34,34.459,34.459,0,0,1,1.549,5.681A7.992,7.992,0,0,0,17.2,10.6Zm-4.754,6.07a33.149,33.149,0,0,0-1.7-6.04l-.051.016a10.885,10.885,0,0,0-6.25,4.975,7.947,7.947,0,0,0,8,1.051ZM3.409,14.669A12.635,12.635,0,0,1,9.886,9.41c.1-.035.21-.065.315-.093-.2-.455-.42-.907-.647-1.353A29.369,29.369,0,0,1,1.365,9.1l0,.243A7.943,7.943,0,0,0,3.41,14.667ZM1.528,7.708a29.587,29.587,0,0,0,7.367-.97A50.9,50.9,0,0,0,5.941,2.129,7.987,7.987,0,0,0,1.528,7.7ZM7.463,1.6a42.516,42.516,0,0,1,2.971,4.664,8.99,8.99,0,0,0,4.177-2.878A7.95,7.95,0,0,0,7.463,1.593ZM15.5,4.3a10.653,10.653,0,0,1-4.45,3.141c.187.381.365.766.529,1.155.062.14.117.28.171.412a18.654,18.654,0,0,1,5.55.257,7.886,7.886,0,0,0-1.8-4.96Z"/>
</svg>
