<svg xmlns="http://www.w3.org/2000/svg" width="17.296" height="18.281" viewBox="0 0 17.296 18.281">
  <defs>
    <style>
      .cls-1 {
        fill: none;
        stroke: #fff;
        stroke-linecap: round;
        stroke-linejoin: round;
        stroke-width: 2px;
      }
    </style>
  </defs>
  <path id="Icon_feather-github" data-name="Icon feather-github" class="cls-1" d="M8.414,15.4C4.547,16.564,4.547,13.47,3,13.083m10.829,4.641V14.73a2.607,2.607,0,0,0-.727-2.019c2.429-.271,4.981-1.191,4.981-5.414a4.207,4.207,0,0,0-1.16-2.9,3.922,3.922,0,0,0-.07-2.917s-.913-.271-3.024,1.145a10.349,10.349,0,0,0-5.414,0C6.3,1.21,5.39,1.481,5.39,1.481A3.922,3.922,0,0,0,5.32,4.4,4.208,4.208,0,0,0,4.16,7.32c0,4.192,2.553,5.113,4.981,5.414a2.607,2.607,0,0,0-.727,2v2.993" transform="translate(-1.787 -0.443)"/>
</svg>
