<svg id="search" xmlns="http://www.w3.org/2000/svg" width="18.459" height="18.459" viewBox="0 0 18.459 18.459">
  <defs>
    <style>
      .cls-1 {
        fill: #fbbb00;
      }

      .cls-2 {
        fill: #518ef8;
      }

      .cls-3 {
        fill: #28b446;
      }

      .cls-4 {
        fill: #f14336;
      }
    </style>
  </defs>
  <path id="Path_241" data-name="Path 241" class="cls-1" d="M4.091,144.438l-.643,2.4-2.348.05a9.246,9.246,0,0,1-.068-8.619h0l2.091.383.916,2.078a5.508,5.508,0,0,0,.052,3.709Z" transform="translate(0 -133.283)"/>
  <path id="Path_242" data-name="Path 242" class="cls-2" d="M270.494,208.176a9.226,9.226,0,0,1-3.29,8.922h0l-2.634-.134-.373-2.327a5.5,5.5,0,0,0,2.367-2.809h-4.935v-3.651h8.866Z" transform="translate(-252.195 -200.67)"/>
  <path id="Path_243" data-name="Path 243" class="cls-3" d="M44.416,314.681h0a9.233,9.233,0,0,1-13.908-2.824l2.991-2.448a5.489,5.489,0,0,0,7.91,2.81Z" transform="translate(-29.409 -298.254)"/>
  <path id="Path_244" data-name="Path 244" class="cls-4" d="M42.713,2.125l-2.99,2.448a5.489,5.489,0,0,0-8.092,2.874L28.625,4.985h0a9.232,9.232,0,0,1,14.089-2.86Z" transform="translate(-27.592)"/>
</svg>
