<svg xmlns="http://www.w3.org/2000/svg" xmlns:xlink="http://www.w3.org/1999/xlink" width="126" height="126" viewBox="0 0 126 126">
  <defs>
    <style>
      .cls-1, .cls-7 {
        fill: #fff;
      }

      .cls-1 {
        stroke: #707070;
      }

      .cls-2 {
        clip-path: url(#clip-path);
      }

      .cls-3 {
        fill: #093f68;
      }

      .cls-4 {
        fill: #70cc40;
      }

      .cls-5 {
        fill: #725858;
      }

      .cls-6 {
        fill: #68e1fd;
      }

      .cls-8 {
        fill: #ffc9b0;
      }
    </style>
    <clipPath id="clip-path">
      <rect id="Rectangle_16" data-name="Rectangle 16" class="cls-1" width="126" height="126" transform="translate(1466 684)"/>
    </clipPath>
  </defs>
  <g id="Mask_Group_4" data-name="Mask Group 4" class="cls-2" transform="translate(-1466 -684)">
    <g id="_276_boss_outline" data-name="#276_boss_outline" transform="translate(1397.76 648.54)">
      <path id="Path_492" data-name="Path 492" class="cls-3" d="M146.13,156.621l-14.822-11.568v-20.19h-5.984v20.19l-14.809,11.568a2.3,2.3,0,0,0,2.828,3.622l14.98-11.692,14.986,11.692a2.3,2.3,0,1,0,2.821-3.622Z"/>
      <path id="Path_493" data-name="Path 493" class="cls-3" d="M144.719,161.411a2.913,2.913,0,0,1-1.818-.656l-14.58-11.371-14.579,11.371a2.953,2.953,0,1,1-3.628-4.652l14.553-11.364V124.864a.656.656,0,0,1,.656-.656h5.971a.656.656,0,0,1,.656.656v19.875L146.523,156.1h0a2.953,2.953,0,0,1-1.818,5.282Zm-16.4-13.49a.656.656,0,0,1,.407.138L143.7,159.725a1.68,1.68,0,0,0,2.3-.289,1.64,1.64,0,0,0-.282-2.3l-14.822-11.561a.656.656,0,0,1-.256-.512V125.52h-4.659v19.54a.656.656,0,0,1-.249.512l-14.822,11.561a1.654,1.654,0,1,0,2.014,2.625l15.026-11.725a.656.656,0,0,1,.374-.138Z"/>
      <path id="Path_494" data-name="Path 494" class="cls-4" d="M109.576,72.871h37.551a5.7,5.7,0,0,1,5.669,6.24l-4.547,47.524H108.4l-4.521-47.524a5.7,5.7,0,0,1,5.7-6.24Z"/>
      <path id="Path_495" data-name="Path 495" class="cls-3" d="M148.249,127.292H108.4a.656.656,0,0,1-.656-.591L103.224,79.17a6.358,6.358,0,0,1,6.325-6.955H147.1a6.358,6.358,0,0,1,6.325,6.955L148.905,126.7A.656.656,0,0,1,148.249,127.292ZM109,125.979h38.634L152.1,79.046a5.052,5.052,0,0,0-5.02-5.518H109.576a5.052,5.052,0,0,0-5.019,5.518Z"/>
      <path id="Path_496" data-name="Path 496" class="cls-4" d="M105.836,104.327h.965a4.5,4.5,0,0,1,4.495,4.495v17.814h-9.954V108.815a4.5,4.5,0,0,1,4.495-4.488Z"/>
      <path id="Path_497" data-name="Path 497" class="cls-3" d="M111.295,127.292h-9.954a.656.656,0,0,1-.656-.656V108.815a5.157,5.157,0,0,1,5.151-5.144h.965a5.157,5.157,0,0,1,5.151,5.151v17.814A.656.656,0,0,1,111.295,127.292Zm-9.3-1.312h8.641V108.815a3.845,3.845,0,0,0-3.838-3.838h-.965A3.845,3.845,0,0,0,102,108.815Z"/>
      <path id="Path_498" data-name="Path 498" class="cls-4" d="M149.85,104.327h.965a4.5,4.5,0,0,1,4.495,4.495v17.814h-9.954V108.815a4.5,4.5,0,0,1,4.495-4.488Z"/>
      <path id="Path_499" data-name="Path 499" class="cls-3" d="M155.309,127.292h-9.954a.656.656,0,0,1-.656-.656V108.815a5.157,5.157,0,0,1,5.151-5.151h.965a5.157,5.157,0,0,1,5.151,5.151v17.821A.656.656,0,0,1,155.309,127.292Zm-9.3-1.312h8.641V108.815a3.845,3.845,0,0,0-3.838-3.838h-.965a3.845,3.845,0,0,0-3.838,3.838Z"/>
      <rect id="Rectangle_33" data-name="Rectangle 33" class="cls-4" width="53.968" height="8.405" rx="3.681" transform="translate(101.341 122.436)"/>
      <path id="Path_500" data-name="Path 500" class="cls-3" d="M151.628,131.5H105.042a4.344,4.344,0,0,1-4.331-4.337v-1.05a4.337,4.337,0,0,1,4.331-4.331h46.586a4.337,4.337,0,0,1,4.337,4.331v1.05A4.344,4.344,0,0,1,151.628,131.5Zm-46.586-8.405a3.018,3.018,0,0,0-3.018,3.018v1.05a3.025,3.025,0,0,0,3.018,3.025h46.586a3.031,3.031,0,0,0,3.025-3.025v-1.05a3.025,3.025,0,0,0-3.025-3.018Z"/>
      <path id="Path_501" data-name="Path 501" class="cls-5" d="M123.532,55.313c5.84-.262,11.482.243,15.951,4.527,2.3,2.2,4.245,6.037,3.333,9.3-.367,1.312-1.266,2.257-1.227,3.76,0,.243.827,3.419,1.522,2.677-1.9,2.021-5.2,1.614-7.828.715s-5.413-2.152-8.064-1.312c-1.247.394-2.316,1.214-3.523,1.726-3.5,1.5-7.519.2-11.109-1.1a3.635,3.635,0,0,0,1.818-3.222,13.34,13.34,0,0,0-.7-3.806c-.846-3.2-1.2-6.909.866-9.481C116.387,56.842,120.73,55.437,123.532,55.313Z"/>
      <path id="Path_502" data-name="Path 502" class="cls-3" d="M120.238,78.022a23.945,23.945,0,0,1-7.874-1.8.678.678,0,0,1-.059-1.24,3.022,3.022,0,0,0,1.444-2.625A10.682,10.682,0,0,0,113.2,69.2l-.131-.466c-1.188-4.383-.853-7.769.991-10.052,2.08-2.585,6.778-3.937,9.442-4.035l.033.656-.033-.656c5.722-.256,11.673.138,16.436,4.711,2.388,2.283,4.508,6.378,3.51,9.954a8.425,8.425,0,0,1-.6,1.483,4.376,4.376,0,0,0-.61,2.087,8.844,8.844,0,0,0,.728,2.054.656.656,0,0,1,.656,1.089h0c-2.362,2.5-6.351,1.627-8.53.886l-1.017-.361c-2.231-.794-4.541-1.614-6.64-.958a10.158,10.158,0,0,0-1.936.919c-.486.269-.991.551-1.522.781a9.37,9.37,0,0,1-3.74.728Zm-6.3-2.625c3.366,1.161,6.614,1.968,9.5.709a13.585,13.585,0,0,0,1.4-.722,11.843,11.843,0,0,1,2.178-1.024c2.526-.787,5.039.112,7.473.978l1,.348c1.653.571,4.508,1.24,6.43.046a8.786,8.786,0,0,1-.991-2.8,5.505,5.505,0,0,1,.735-2.69,7.966,7.966,0,0,0,.518-1.26c.846-3.058-1.043-6.634-3.156-8.661-4.409-4.232-10.046-4.593-15.472-4.344h0c-2.8.125-6.844,1.516-8.477,3.543s-1.818,4.934-.748,8.891l.131.459a11.81,11.81,0,0,1,.591,3.537,4.724,4.724,0,0,1-1.115,2.972Z"/>
      <path id="Path_503" data-name="Path 503" class="cls-5" d="M121.15,39.447s-3.937-1.161-7.736,2.907c-3.281,3.576-3.937,8.851-3.622,13.53.23,3.694,1.509,6.975,4.508,9.3a20.709,20.709,0,0,0,8.582,3.543c7.467,1.542,18.615.328,22.775-7.185,2.92-5.249,1.857-12.749-1.312-17.637C139.555,36.5,126.708,33.1,121.15,39.447Z"/>
      <path id="Path_504" data-name="Path 504" class="cls-3" d="M128.709,69.945a30.275,30.275,0,0,1-5.958-.577A21.1,21.1,0,0,1,113.9,65.7c-2.894-2.237-4.495-5.525-4.764-9.77-.381-6.161.9-10.879,3.8-14.015,3.32-3.6,6.8-3.386,7.985-3.189,2.257-2.369,5.676-3.51,9.678-3.222,5.7.413,11.45,3.642,14.3,8.038,3.077,4.75,4.527,12.559,1.312,18.313C142.855,67.963,135.244,69.945,128.709,69.945Zm-8.95-30A7.93,7.93,0,0,0,113.9,42.8c-2.625,2.867-3.812,7.257-3.451,13.044.243,3.937,1.634,6.791,4.258,8.819a19.67,19.67,0,0,0,8.307,3.419c6.594,1.358,17.913.656,22.073-6.863,2.933-5.3,1.575-12.545-1.312-16.961-2.625-4.068-7.985-7.06-13.3-7.441-3.74-.282-6.883.814-8.851,3.064a.656.656,0,0,1-.656.2,5.02,5.02,0,0,0-1.207-.131Z"/>
      <path id="Path_505" data-name="Path 505" class="cls-6" d="M152.225,85.745l-17.473-6.758.072.217a6.49,6.49,0,0,0-1.634-.217h-9.179c-2.3,0-6.739,2.533-8.392,4.593L102.5,98.763l9.147,4.685,2.749-3.707v14.77H142.77V92.9l7.749,2.671Z"/>
      <path id="Path_506" data-name="Path 506" class="cls-3" d="M142.783,115.192H114.4a.656.656,0,0,1-.656-.656V101.755l-1.542,2.106a.656.656,0,0,1-.82.2l-9.153-4.685a.656.656,0,0,1-.2-1.017l13.123-15.183c1.673-2.1,6.292-4.842,8.891-4.842h9.186a7.487,7.487,0,0,1,1.2.1.656.656,0,0,1,.6-.059L152.5,85.135a.656.656,0,0,1,.407.722l-1.7,9.842a.657.657,0,0,1-.86.512l-6.929-2.382v20.688a.7.7,0,0,1-.636.676Zm-27.729-1.312h27.072V92.949a.656.656,0,0,1,.866-.656l7.021,2.421,1.476-8.563-16.4-6.351a.656.656,0,0,1-.413,0,5.682,5.682,0,0,0-1.463-.2h-9.2c-2.021,0-6.292,2.369-7.874,4.37L103.566,98.546l7.907,4.048,2.415-3.281a.653.653,0,0,1,1.181.42Z"/>
      <path id="Path_507" data-name="Path 507" class="cls-3" d="M114.4,100.423a.656.656,0,0,1-.656-.656V91.079a.656.656,0,1,1,1.312,0v8.687A.656.656,0,0,1,114.4,100.423Z"/>
      <rect id="Rectangle_34" data-name="Rectangle 34" class="cls-7" width="9.895" height="35.55" transform="translate(123.657 78.986)"/>
      <path id="Path_508" data-name="Path 508" class="cls-3" d="M133.558,115.192h-9.9a.656.656,0,0,1-.656-.656V78.986a.656.656,0,0,1,.656-.656h9.9a.656.656,0,0,1,.656.656v35.55A.656.656,0,0,1,133.558,115.192Zm-9.245-1.312H132.9V79.643h-8.589Z"/>
      <path id="Path_509" data-name="Path 509" class="cls-8" d="M133.558,78.986v8.9a8.53,8.53,0,0,1-4.921,1.312,8.832,8.832,0,0,1-4.98-1.312v-8.9Z"/>
      <path id="Path_510" data-name="Path 510" class="cls-3" d="M128.637,89.892a9.422,9.422,0,0,1-5.367-1.45.656.656,0,0,1-.269-.525v-8.93a.656.656,0,0,1,.656-.656h9.9a.656.656,0,0,1,.656.656v8.9a.656.656,0,0,1-.262.518A9.074,9.074,0,0,1,128.637,89.892Zm-4.324-2.342a8.832,8.832,0,0,0,4.324,1.03,8.53,8.53,0,0,0,4.265-1.024V79.682h-8.589Z"/>
      <path id="Path_511" data-name="Path 511" class="cls-3" d="M123.657,100.068a.656.656,0,0,1-.577-.348L119,92.044a.656.656,0,0,1,0-.656l2.106-3.648-2.421-2.94a.656.656,0,0,1,0-.833l4.462-5.413a.656.656,0,1,1,1.01.833l-4.081,5.019,2.362,2.874a.656.656,0,0,1,.066.741l-2.152,3.727,3.937,7.355a.656.656,0,0,1-.577.965Z"/>
      <path id="Path_512" data-name="Path 512" class="cls-3" d="M133.9,100.436a.656.656,0,0,1-.577-.965l3.937-7.355-2.146-3.727a.656.656,0,0,1,.059-.748l2.369-2.867-4.121-5.006a.657.657,0,0,1,1.017-.833l4.455,5.42a.656.656,0,0,1,0,.833l-2.415,2.94,2.1,3.648a.656.656,0,0,1,0,.656l-4.068,7.657a.656.656,0,0,1-.61.348Z"/>
      <path id="Path_513" data-name="Path 513" class="cls-8" d="M126.255,80.089v-4.4h4.672v4.4"/>
      <path id="Path_514" data-name="Path 514" class="cls-3" d="M130.927,80.745a.656.656,0,0,1-.656-.656V76.342h-3.359v3.747a.656.656,0,0,1-1.312,0v-4.4a.656.656,0,0,1,.656-.656h4.672a.656.656,0,0,1,.656.656v4.4A.656.656,0,0,1,130.927,80.745Z"/>
      <ellipse id="Ellipse_16" data-name="Ellipse 16" class="cls-8" cx="4.541" cy="3.911" rx="4.541" ry="3.911" transform="translate(110.691 59.637)"/>
      <path id="Path_515" data-name="Path 515" class="cls-3" d="M115.232,68.114c-2.861,0-5.2-2.047-5.2-4.593s2.336-4.593,5.2-4.593,5.2,2.054,5.2,4.593S118.106,68.114,115.232,68.114Zm0-7.828c-2.139,0-3.884,1.463-3.884,3.281s1.745,3.281,3.884,3.281,3.884-1.463,3.884-3.281S117.377,60.286,115.232,60.286Z"/>
      <ellipse id="Ellipse_17" data-name="Ellipse 17" class="cls-8" cx="4.541" cy="3.911" rx="4.541" ry="3.911" transform="translate(137.167 59.637)"/>
      <path id="Path_516" data-name="Path 516" class="cls-3" d="M141.727,68.114c-2.867,0-5.2-2.047-5.2-4.593s2.329-4.593,5.2-4.593,5.2,2.054,5.2,4.593S144.574,68.114,141.727,68.114Zm0-7.828c-2.146,0-3.884,1.463-3.884,3.281s1.739,3.281,3.884,3.281,3.884-1.463,3.884-3.281S143.846,60.286,141.727,60.286Z"/>
      <path id="Path_517" data-name="Path 517" class="cls-8" d="M136.891,51.973a11.9,11.9,0,0,1-4.016-7.585,15.327,15.327,0,0,1-5.735,7.395,26.148,26.148,0,0,1-8.661,3.806c-4.042,1.05-3.583,3.4-3.583,7.014a13.694,13.694,0,1,0,27.387,0c0-1.9.413-4.232-.4-6-.938-2.027-3.176-3.11-4.816-4.475Z"/>
      <path id="Path_518" data-name="Path 518" class="cls-3" d="M128.6,76.952a14.363,14.363,0,0,1-14.35-14.35v-1c-.039-3.117-.072-5.571,4.081-6.647a25.327,25.327,0,0,0,8.445-3.714,14.639,14.639,0,0,0,5.492-7.067.656.656,0,0,1,1.279.138,11.253,11.253,0,0,0,3.786,7.165h0l.164.138c.433.361.905.7,1.4,1.05a9.953,9.953,0,0,1,3.6,3.655,10.832,10.832,0,0,1,.512,4.842c0,.5-.052.978-.052,1.437A14.363,14.363,0,0,1,128.6,76.952Zm4.048-30.366a16.718,16.718,0,0,1-5.131,5.754,26.357,26.357,0,0,1-8.878,3.937c-3.156.82-3.136,2.336-3.1,5.361v1.017a13.038,13.038,0,1,0,26.075,0,14.753,14.753,0,0,1,.052-1.5,9.269,9.269,0,0,0-.394-4.226,8.907,8.907,0,0,0-3.169-3.136c-.492-.354-1-.722-1.47-1.109l-.164-.19h0A12.65,12.65,0,0,1,132.652,46.586Z"/>
      <circle id="Ellipse_18" data-name="Ellipse 18" class="cls-3" cx="1.293" cy="1.293" r="1.293" transform="translate(120.468 60.418)"/>
      <circle id="Ellipse_19" data-name="Ellipse 19" class="cls-3" cx="1.293" cy="1.293" r="1.293" transform="translate(133.833 60.418)"/>
      <path id="Path_519" data-name="Path 519" class="cls-3" d="M128.433,66.723a8.777,8.777,0,0,1-1.312-.1.656.656,0,0,1,.223-1.293,6.43,6.43,0,0,0,1.627.053,10.63,10.63,0,0,0-1.024-2.736.657.657,0,0,1,1.168-.6c.584,1.122,1.5,3.136,1.1,4.029a.938.938,0,0,1-.656.538A4.625,4.625,0,0,1,128.433,66.723Z"/>
      <path id="Path_520" data-name="Path 520" class="cls-3" d="M123.972,58.626h-6.01a1.043,1.043,0,0,1,0-2.087h6.01a1.043,1.043,0,0,1,0,2.087Z"/>
      <path id="Path_521" data-name="Path 521" class="cls-3" d="M138.932,58.626h-6.017a1.043,1.043,0,1,1,0-2.087h6.017a1.043,1.043,0,0,1,0,2.087Z"/>
      <path id="Path_522" data-name="Path 522" class="cls-3" d="M128.309,71.054a8.274,8.274,0,0,1-4.757-1.706.654.654,0,0,1,.84-1h0c.177.138,4.278,3.458,8.044-.656a.657.657,0,0,1,.965.892A6.778,6.778,0,0,1,128.309,71.054Z"/>
      <rect id="Rectangle_35" data-name="Rectangle 35" class="cls-3" width="28.378" height="12.178" transform="translate(114.405 110.455)"/>
      <path id="Path_523" data-name="Path 523" class="cls-3" d="M142.783,123.289H114.4a.656.656,0,0,1-.656-.656V110.455a.656.656,0,0,1,.656-.656h28.385a.656.656,0,0,1,.656.656v12.178A.656.656,0,0,1,142.783,123.289Zm-27.729-1.312h27.072V111.111H115.055Z"/>
      <path id="Path_524" data-name="Path 524" class="cls-8" d="M119.707,148.623l8.9-.991.2-29.992a6.01,6.01,0,0,0-6.01-6h0a6.01,6.01,0,0,0-6.01,6Z"/>
      <path id="Path_525" data-name="Path 525" class="cls-3" d="M119.707,149.279a.657.657,0,0,1-.656-.591l-2.913-31a6.666,6.666,0,1,1,13.326-.066l-.2,30.012a.656.656,0,0,1-.584.656l-8.884,1.017Zm3.071-37.006a5.361,5.361,0,0,0-5.354,5.348L120.3,147.9l7.651-.879.19-29.4A5.361,5.361,0,0,0,122.777,112.273Z"/>
      <path id="Path_526" data-name="Path 526" class="cls-8" d="M137.167,150.965l10.2-2.165-7.145-35a6.017,6.017,0,0,0-8.044-2.73h0a6.01,6.01,0,0,0-2.73,8.051Z"/>
      <path id="Path_527" data-name="Path 527" class="cls-3" d="M137.167,151.621a.656.656,0,0,1-.656-.5l-7.7-31.777a6.666,6.666,0,0,1,11.988-5.833.492.492,0,0,1,.053.157l7.145,35a.656.656,0,0,1-.505.774l-10.2,2.165a.492.492,0,0,1-.118.013ZM134.831,111.1a5.361,5.361,0,0,0-4.79,7.723.565.565,0,0,1,.046.138l7.565,31.226,8.943-1.9L139.6,114.011a5.321,5.321,0,0,0-3.044-2.625,5.381,5.381,0,0,0-1.726-.282Z"/>
      <circle id="Ellipse_20" data-name="Ellipse 20" class="cls-7" cx="1.26" cy="1.26" r="1.26" transform="translate(110.691 65.568)"/>
      <path id="Path_528" data-name="Path 528" class="cls-3" d="M111.951,68.751a1.923,1.923,0,1,1,1.922-1.923,1.922,1.922,0,0,1-1.922,1.923Zm0-2.526a.61.61,0,1,0,.581.284.61.61,0,0,0-.581-.284Z"/>
      <circle id="Ellipse_21" data-name="Ellipse 21" class="cls-7" cx="1.26" cy="1.26" r="1.26" transform="translate(143.472 65.568)"/>
      <path id="Path_529" data-name="Path 529" class="cls-3" d="M144.732,68.751a1.923,1.923,0,1,1,1.922-1.923,1.922,1.922,0,0,1-1.922,1.923Zm0-2.526a.61.61,0,1,0,.581.284.61.61,0,0,0-.581-.284Z"/>
      <circle id="Ellipse_22" data-name="Ellipse 22" class="cls-7" cx="1.201" cy="1.201" r="1.201" transform="translate(124.772 80.089)"/>
      <path id="Path_530" data-name="Path 530" class="cls-3" d="M125.979,83.146a1.857,1.857,0,1,1,1.857-1.857,1.857,1.857,0,0,1-1.857,1.857Zm0-2.4a.545.545,0,1,0,.545.545.545.545,0,0,0-.545-.545Z"/>
      <circle id="Ellipse_23" data-name="Ellipse 23" class="cls-7" cx="1.201" cy="1.201" r="1.201" transform="translate(129.956 80.089)"/>
      <path id="Path_531" data-name="Path 531" class="cls-3" d="M131.156,83.146a1.857,1.857,0,1,1,1.857-1.857,1.857,1.857,0,0,1-1.857,1.857Zm0-2.4a.545.545,0,1,0,.545.545A.545.545,0,0,0,131.156,80.745Z"/>
      <circle id="Ellipse_24" data-name="Ellipse 24" class="cls-7" cx="1.201" cy="1.201" r="1.201" transform="translate(122.791 77.759)"/>
      <path id="Path_532" data-name="Path 532" class="cls-3" d="M124.011,80.817a1.863,1.863,0,1,1,1.857-1.857,1.863,1.863,0,0,1-1.857,1.857Zm0-2.408a.558.558,0,0,0-.551.551.551.551,0,0,0,.551.545.545.545,0,0,0,.545-.545.551.551,0,0,0-.545-.551Z"/>
      <circle id="Ellipse_25" data-name="Ellipse 25" class="cls-7" cx="1.201" cy="1.201" r="1.201" transform="translate(131.498 77.759)"/>
      <path id="Path_533" data-name="Path 533" class="cls-3" d="M132.7,80.817a1.863,1.863,0,1,1,1.857-1.857,1.863,1.863,0,0,1-1.857,1.857Zm0-2.408a.551.551,0,0,0-.545.551.545.545,0,1,0,1.089,0,.551.551,0,0,0-.545-.551Z"/>
      <circle id="Ellipse_26" data-name="Ellipse 26" class="cls-7" cx="1.201" cy="1.201" r="1.201" transform="translate(127.246 81.801)"/>
      <path id="Path_534" data-name="Path 534" class="cls-3" d="M128.446,84.859A1.857,1.857,0,1,1,130.3,83,1.857,1.857,0,0,1,128.446,84.859Zm0-2.4a.545.545,0,1,0,.545.545A.545.545,0,0,0,128.446,82.457Z"/>
      <path id="Path_535" data-name="Path 535" class="cls-8" d="M161.109,67.583c-.249-1.562-2.743-2.52-2.743-2.52s1.247-4.37,1.312-4.954.164-1.411-1.312-1.01-3.064,5.426-3.064,5.426-.748-.269-2.428.538,0,4.455,0,4.455l-7.4,20.839a4.434,4.434,0,1,0,8.72,1.608l3.117-18.372h0S161.359,69.177,161.109,67.583Z"/>
      <path id="Path_536" data-name="Path 536" class="cls-3" d="M149.824,96.256a4.816,4.816,0,0,1-.912-.085,5.085,5.085,0,0,1-4.088-5.905v-.1l7.342-20.609c-.407-.978-1.542-4.134.42-5.072a5.649,5.649,0,0,1,2.251-.656c.545-1.614,1.837-4.954,3.366-5.361a1.968,1.968,0,0,1,1.778.19,1.647,1.647,0,0,1,.367,1.542c-.072.505-.833,3.209-1.194,4.495.853.42,2.375,1.358,2.625,2.789h0c.269,1.673-2.716,5.151-3.845,6.391L154.85,92.044a5.1,5.1,0,0,1-5.026,4.212Zm-3.714-5.708a3.771,3.771,0,1,0,7.428,1.312l3.117-18.372a.656.656,0,0,1,.157-.335c1.863-2.027,3.773-4.7,3.655-5.446h0c-.157-.965-1.772-1.8-2.329-2.014a.656.656,0,0,1-.394-.787c.479-1.673,1.253-4.475,1.312-4.869a2.665,2.665,0,0,0,0-.367,2.047,2.047,0,0,0-.538.085c-.656.184-1.9,2.723-2.625,4.987a.656.656,0,0,1-.846.42h-.131a4.3,4.3,0,0,0-1.791.518c-.781.374-.184,2.52.308,3.589a.656.656,0,0,1,0,.5Z"/>
      <path id="Path_537" data-name="Path 537" class="cls-8" d="M155.3,64.551s3.4,2.73,1.968,3.281-2.736-1.168-2.736-1.168,1.916,2.021.748,3.012"/>
      <path id="Path_538" data-name="Path 538" class="cls-3" d="M155.3,70.358a.656.656,0,0,1-.426-1.155.367.367,0,0,0,.144-.289,2.933,2.933,0,0,0-.741-1.542c-.144-.157-.23-.269-.249-.282a.657.657,0,0,1,1-.853s.118.125.23.256c.328.341,1.03.971,1.693.787a8.347,8.347,0,0,0-2.06-2.218.656.656,0,0,1,.82-1.024c.833.656,2.743,2.342,2.566,3.53a1.122,1.122,0,0,1-.735.892,2.172,2.172,0,0,1-1.22.138,2.462,2.462,0,0,1,0,.381,1.686,1.686,0,0,1-.61,1.227A.656.656,0,0,1,155.3,70.358Zm1.673-2.959Z"/>
      <path id="Path_539" data-name="Path 539" class="cls-8" d="M134.739,109.353c-1.148-1.9-5.387-2.585-5.387-2.585L107.995,95.8a4.422,4.422,0,0,0-5.485,3.012h0a4.429,4.429,0,0,0,3.005,5.485l21.121,7.047a41.9,41.9,0,0,0,4.849,1c1.01,0,2.808,1.411,3.891,1.083S135.887,111.262,134.739,109.353Z"/>
      <path id="Path_540" data-name="Path 540" class="cls-3" d="M135.014,114.129a5.971,5.971,0,0,1-2.2-.656A4.685,4.685,0,0,0,131.5,113a39.007,39.007,0,0,1-5-1.017L105.311,104.9a5.085,5.085,0,0,1,2.867-9.757l.112.046,21.272,10.944c.794.138,4.534.886,5.735,2.88,1.135,1.883,1.542,3.281,1.2,4.18a1.378,1.378,0,0,1-.919.846A1.811,1.811,0,0,1,135.014,114.129Zm-28.26-17.873a3.773,3.773,0,0,0-1.056,7.414l21.161,7.073a36.94,36.94,0,0,0,4.646.965,5.249,5.249,0,0,1,1.85.584c.656.289,1.45.656,1.837.525.059,0,.066-.033.079-.066.1-.276,0-1.22-1.1-3.031h0c-.814-1.352-3.832-2.106-4.928-2.277a.773.773,0,0,1-.2-.066l-21.3-10.958A3.767,3.767,0,0,0,106.754,96.256Z"/>
      <path id="Path_541" data-name="Path 541" class="cls-6" d="M135.4,143.945a6.526,6.526,0,0,0,5.4,1.358,11.377,11.377,0,0,0,5.433-2.087s13.274,13,10.065,13.333a20.977,20.977,0,0,1-13.464-4.4s-.413,2.867-2.087,3.176c-1.4.256-2.966-1.1-2.966-1.1S135.874,145.939,135.4,143.945Z"/>
      <path id="Path_542" data-name="Path 542" class="cls-3" d="M155.335,157.245a22.565,22.565,0,0,1-12.106-3.937c-.322,1.017-1,2.415-2.369,2.664-1.667.308-3.327-1.089-3.51-1.247a.656.656,0,0,1-.21-.348c0-.085-1.909-8.307-2.388-10.275a.659.659,0,0,1,1.1-.623h0a5.869,5.869,0,0,0,4.849,1.174,10.957,10.957,0,0,0,5.1-1.968.656.656,0,0,1,.879.033c3.471,3.4,11.45,11.535,10.7,13.707a1.142,1.142,0,0,1-1.024.748,9.837,9.837,0,0,1-1.024.072ZM142.829,151.5a.656.656,0,0,1,.427.158c3.681,3.2,9.9,4.508,12.906,4.245-.2-1.444-5.157-7.073-9.973-11.811a12.893,12.893,0,0,1-5.249,1.883,7.952,7.952,0,0,1-4.481-.584c.656,2.736,1.719,7.428,1.968,8.49a3.377,3.377,0,0,0,2.257.827c.984-.184,1.463-2,1.555-2.625a.778.778,0,0,1,.591-.584Z"/>
      <path id="Path_543" data-name="Path 543" class="cls-3" d="M142.764,93.579a.545.545,0,0,1-.23-.039L139.8,92.516a.656.656,0,1,1,.459-1.227l2.73,1.017a.656.656,0,0,1-.223,1.266Z"/>
      <path id="Path_544" data-name="Path 544" class="cls-6" d="M119.379,145.172s.7,7.093,1.529,8.661,2.218,6.279,5.249,5.636,3.143-4.993,3.143-6.929-.991-8.6-.991-8.6-2.467,3.281-4.665,3.432S119.379,145.172,119.379,145.172Z"/>
      <path id="Path_545" data-name="Path 545" class="cls-3" d="M125.586,160.184c-2.579,0-3.937-3.123-4.8-5.052-.171-.394-.322-.735-.459-.991-.866-1.64-1.529-8.169-1.6-8.9a.656.656,0,0,1,1.148-.5s1.9,2.132,3.733,1.968c1.562-.125,3.556-2.329,4.2-3.169a.656.656,0,0,1,1.168.3c.039.269,1,6.719,1,8.687,0,1.68,0,6.791-3.661,7.572a3.5,3.5,0,0,1-.722.085ZM120.218,146.8c.315,2.664.807,5.853,1.266,6.725.151.282.315.656.5,1.076,1.037,2.356,2.2,4.593,4.048,4.226,2.349-.5,2.625-3.825,2.625-6.286,0-1.312-.492-5.013-.774-7.073-.991,1.043-2.585,2.434-4.173,2.559A5.321,5.321,0,0,1,120.218,146.8Z"/>
    </g>
  </g>
</svg>
