<svg xmlns="http://www.w3.org/2000/svg" xmlns:xlink="http://www.w3.org/1999/xlink" width="126" height="126" viewBox="0 0 126 126">
  <defs>
    <style>
      .cls-1, .cls-6 {
        fill: #fff;
      }

      .cls-1 {
        stroke: #707070;
      }

      .cls-2 {
        clip-path: url(#clip-path);
      }

      .cls-3 {
        fill: #f56132;
      }

      .cls-4 {
        fill: #093f68;
      }

      .cls-5 {
        fill: #68e1fd;
      }

      .cls-7 {
        fill: #ffc9b0;
      }

      .cls-8 {
        fill: #725858;
      }

      .cls-9 {
        fill: #70cc40;
      }

      .cls-10 {
        fill: #ffbc0e;
      }
    </style>
    <clipPath id="clip-path">
      <rect id="Rectangle_24" data-name="Rectangle 24" class="cls-1" width="126" height="126" transform="translate(1466 422)"/>
    </clipPath>
  </defs>
  <g id="Mask_Group_3" data-name="Mask Group 3" class="cls-2" transform="translate(-1466 -422)">
    <g id="_75_job_interview_outline" data-name="#75_job_interview_outline" transform="translate(1393.585 383.579)">
      <path id="Path_438" data-name="Path 438" class="cls-3" d="M86.754,86.476H111a8.572,8.572,0,0,1,8.572,8.572V114.29H78.182V95.048A8.572,8.572,0,0,1,86.754,86.476Z"/>
      <path id="Path_439" data-name="Path 439" class="cls-4" d="M119.565,114.967H78.182a.677.677,0,0,1-.677-.677V95.048A9.262,9.262,0,0,1,86.754,85.8H111a9.256,9.256,0,0,1,9.242,9.249V114.29A.677.677,0,0,1,119.565,114.967Zm-40.706-1.354h40.029V95.048A7.9,7.9,0,0,0,111,87.153H86.754a7.9,7.9,0,0,0-7.895,7.895Z"/>
      <path id="Path_440" data-name="Path 440" class="cls-5" d="M92.082,93.375h27.76a5.891,5.891,0,0,1,5.891,5.891v25.729H86.192V99.266A5.891,5.891,0,0,1,92.082,93.375Z"/>
      <path id="Path_441" data-name="Path 441" class="cls-4" d="M125.746,125.679H86.205a.677.677,0,0,1-.677-.677V99.273A6.574,6.574,0,0,1,92.1,92.712h27.76a6.574,6.574,0,0,1,6.568,6.561V125A.677.677,0,0,1,125.746,125.679Zm-38.864-1.354h38.187V99.273a5.213,5.213,0,0,0-5.213-5.207H92.082a5.213,5.213,0,0,0-5.213,5.207Z"/>
      <path id="Path_442" data-name="Path 442" class="cls-6" d="M113.18,93.375,106.1,120.167,98.873,93.375Z"/>
      <path id="Path_443" data-name="Path 443" class="cls-4" d="M106.1,120.844a.677.677,0,0,1-.677-.5L98.2,93.551a.674.674,0,0,1,.65-.853h14.307a.674.674,0,0,1,.657.853l-7.075,26.785a.677.677,0,0,1-.677.508ZM99.76,94.052,106.1,117.54l6.2-23.488Z"/>
      <path id="Path_444" data-name="Path 444" class="cls-7" d="M103.592,91.27h5.532v3.182a2.349,2.349,0,0,1-2.349,2.349h-.812a2.349,2.349,0,0,1-2.349-2.349V91.27Z"/>
      <path id="Path_445" data-name="Path 445" class="cls-4" d="M106.795,97.5h-.833a3.033,3.033,0,0,1-3.027-3.027v-3.2a.677.677,0,0,1,.677-.677h5.532a.677.677,0,0,1,.677.677v3.189a3.027,3.027,0,0,1-3.027,3.04Zm-2.525-5.552v2.512a1.679,1.679,0,0,0,1.693,1.686h.833a1.679,1.679,0,0,0,1.672-1.672V91.947Z"/>
      <path id="Path_446" data-name="Path 446" class="cls-8" d="M87.282,75.92c-2.573-.968-2.41-2.932-2.8-5.417a65.245,65.245,0,0,1-.677-7.529,20.308,20.308,0,0,1,1.09-8.463c1.395-3.385,4.157-5.626,7.847-5.322-.108-5.037,2.911-9.763,8.267-10.048,8.572-.454,13.5,8.755,18.281,8.064s6.094-2.817,6.094-2.817a8.8,8.8,0,0,1-1.022,9.709s3.778-1.1,4.232,3.927-2.553,18.4-2.553,18.4l-3.426-.6a24.193,24.193,0,0,0-4.692.142l-10.718.339C101.812,76.435,93.118,78.134,87.282,75.92Z"/>
      <path id="Path_447" data-name="Path 447" class="cls-4" d="M95.014,77.721a23.02,23.02,0,0,1-7.976-1.165c-2.58-.975-2.823-2.911-3.087-4.956-.041-.332-.081-.677-.135-1.029a63.732,63.732,0,0,1-.718-7.6,21.664,21.664,0,0,1,1.144-8.741c1.483-3.649,4.367-5.762,7.8-5.769.176-4.868,3.189-9.716,8.9-10.021,5.037-.264,8.917,2.661,12.025,5.017,2.356,1.781,4.394,3.318,6.229,3.054,4.354-.616,5.586-2.478,5.593-2.5a.679.679,0,0,1,1.151,0,9.621,9.621,0,0,1-.257,9.3,3.616,3.616,0,0,1,1.625.6,5.133,5.133,0,0,1,1.93,4.015c.46,5.078-2.444,18.058-2.566,18.606a.677.677,0,0,1-.779.521l-3.433-.6a12.187,12.187,0,0,0-3.006.041c-.542.054-1.049.1-1.544.115l-10.718.339c-1.354.041-2.9.176-4.563.325C100.268,77.484,97.621,77.721,95.014,77.721ZM92.082,49.806c-2.9,0-5.274,1.767-6.561,4.922a20.017,20.017,0,0,0-1.043,8.186,63.82,63.82,0,0,0,.677,7.448c.061.366.1.718.149,1.056.251,1.984.4,3.175,2.221,3.866h0c4.218,1.6,10.2,1.063,15,.636,1.679-.149,3.264-.291,4.638-.332l10.718-.339c.454,0,.941-.061,1.462-.108a13.351,13.351,0,0,1,3.385,0l2.79.487c.582-2.708,2.79-13.3,2.4-17.557a3.837,3.837,0,0,0-1.354-3.013,2.708,2.708,0,0,0-2.031-.325.676.676,0,0,1-.711-1.077,8.017,8.017,0,0,0,1.354-8.077,11.02,11.02,0,0,1-5.789,2.282c-2.4.345-4.638-1.354-7.231-3.311-3.087-2.343-6.568-4.983-11.138-4.74-5.132.271-7.719,4.916-7.624,9.357a.684.684,0,0,1-.731.684Z"/>
      <ellipse id="Ellipse_10" data-name="Ellipse 10" class="cls-7" cx="5.376" cy="4.631" rx="5.376" ry="4.631" transform="translate(85.196 72.271)"/>
      <path id="Path_448" data-name="Path 448" class="cls-4" d="M90.572,82.21c-3.338,0-6.053-2.383-6.053-5.308s2.708-5.308,6.053-5.308,6.046,2.383,6.046,5.308S93.9,82.21,90.572,82.21Zm0-9.262c-2.593,0-4.7,1.774-4.7,3.954s2.106,3.954,4.7,3.954,4.692-1.774,4.692-3.954S93.159,72.948,90.572,72.948Z"/>
      <ellipse id="Ellipse_11" data-name="Ellipse 11" class="cls-7" cx="5.376" cy="4.631" rx="5.376" ry="4.631" transform="translate(116.525 72.271)"/>
      <path id="Path_449" data-name="Path 449" class="cls-4" d="M121.873,82.21c-3.331,0-6.046-2.383-6.046-5.308s2.708-5.308,6.046-5.308,6.053,2.383,6.053,5.308S125.259,82.21,121.873,82.21Zm0-9.262c-2.586,0-4.692,1.774-4.692,3.954s2.106,3.954,4.692,3.954,4.7-1.774,4.7-3.954S124.494,72.948,121.873,72.948Z"/>
      <path id="Path_450" data-name="Path 450" class="cls-7" d="M106.382,92h0A16.209,16.209,0,0,1,90.173,75.792V64.017c.941,1.557,4.062.941,8.7-6.974,17.272,8.748,23.7,3.737,23.7,3.737V75.792A16.209,16.209,0,0,1,106.382,92Z"/>
      <path id="Path_451" data-name="Path 451" class="cls-4" d="M106.382,92.678A16.927,16.927,0,0,1,89.455,75.792V64.017a.677.677,0,0,1,1.273-.372.677.677,0,0,0,.677.359c1.259,0,3.731-1.936,6.866-7.319a.677.677,0,0,1,.887-.264c16.622,8.416,22.96,3.839,23.021,3.839a.685.685,0,0,1,1.09.542V75.812a16.927,16.927,0,0,1-16.886,16.866ZM90.809,65.311V75.792a15.537,15.537,0,1,0,31.074,0l0-13.873C119.389,63,112.462,64.566,99.1,57.931c-2.878,4.794-5.6,7.448-7.705,7.448a2.8,2.8,0,0,1-.555-.068Z"/>
      <circle id="Ellipse_12" data-name="Ellipse 12" class="cls-4" cx="1.503" cy="1.503" r="1.503" transform="translate(98.873 71.926)"/>
      <circle id="Ellipse_13" data-name="Ellipse 13" class="cls-4" cx="1.503" cy="1.503" r="1.503" transform="translate(112.855 71.926)"/>
      <path id="Path_452" data-name="Path 452" class="cls-4" d="M107.689,80.315a8.505,8.505,0,0,1-1.5-.129.677.677,0,0,1,.237-1.334,6.926,6.926,0,0,0,1.984.054,11.841,11.841,0,0,0-1.246-3.277.675.675,0,0,1,1.2-.623c.677,1.286,1.727,3.588,1.28,4.6a1.022,1.022,0,0,1-.677.576A5.349,5.349,0,0,1,107.689,80.315Z"/>
      <path id="Path_453" data-name="Path 453" class="cls-4" d="M103.951,69.427h0l-7.157-.156a1.354,1.354,0,0,1,0-2.708l7.157.156a1.354,1.354,0,0,1-.034,2.708Z"/>
      <path id="Path_454" data-name="Path 454" class="cls-4" d="M111.25,69.949a1.355,1.355,0,0,1-.074-2.708l7.15-.393a1.356,1.356,0,1,1,.149,2.708l-7.15.393Z"/>
      <rect id="Rectangle_29" data-name="Rectangle 29" class="cls-3" width="4.096" height="3.223" rx="1.192" transform="translate(104.053 97.343)"/>
      <path id="Path_455" data-name="Path 455" class="cls-4" d="M106.978,101.243h-1.72a1.869,1.869,0,0,1-1.869-1.862v-.846a1.875,1.875,0,0,1,1.869-1.869h1.72a1.876,1.876,0,0,1,1.869,1.869v.846A1.869,1.869,0,0,1,106.978,101.243Zm-1.72-3.223a.515.515,0,0,0-.515.515v.846a.515.515,0,0,0,.515.508h1.72a.515.515,0,0,0,.515-.508v-.846a.515.515,0,0,0-.515-.515Z"/>
      <path id="Path_456" data-name="Path 456" class="cls-3" d="M108.494,111.135l-2.39,9.032-2.641-9.8,1.462-9.8h2.349Z"/>
      <path id="Path_457" data-name="Path 457" class="cls-4" d="M106.1,120.844a.677.677,0,0,1-.677-.5l-2.647-9.8a.677.677,0,0,1,0-.278l1.49-9.8a.677.677,0,0,1,.677-.582H107.3a.677.677,0,0,1,.677.6l1.219,10.562a.772.772,0,0,1,0,.251l-2.383,9.032a.677.677,0,0,1-.677.508Zm-1.95-10.481,1.943,7.211,1.706-6.459-1.131-9.838h-1.165Z"/>
      <path id="Path_458" data-name="Path 458" class="cls-4" d="M95.217,125.679A.677.677,0,0,1,94.54,125V102.915a.677.677,0,1,1,1.354,0v22.113A.677.677,0,0,1,95.217,125.679Z"/>
      <path id="Path_459" data-name="Path 459" class="cls-4" d="M116.734,125.679a.677.677,0,0,1-.677-.677V102.915a.677.677,0,1,1,1.354,0v22.113A.677.677,0,0,1,116.734,125.679Z"/>
      <path id="Path_460" data-name="Path 460" class="cls-6" d="M101.879,82h9.371s-.934,6.155-5.22,5.884C101.141,87.58,101.879,82,101.879,82Z"/>
      <path id="Path_461" data-name="Path 461" class="cls-4" d="M106.3,88.568h-.325a4.78,4.78,0,0,1-3.555-1.672,7.226,7.226,0,0,1-1.232-4.977.677.677,0,0,1,.677-.589h9.371a.677.677,0,0,1,.677.779C111.88,82.373,110.878,88.568,106.3,88.568Zm-3.8-5.891a5.349,5.349,0,0,0,.968,3.385,3.467,3.467,0,0,0,2.586,1.178c2.749.176,3.941-3.013,4.34-4.53Z"/>
      <rect id="Rectangle_30" data-name="Rectangle 30" class="cls-6" width="119.883" height="52.615" transform="translate(73.381 111.121)"/>
      <path id="Path_462" data-name="Path 462" class="cls-4" d="M193.264,164.421H73.381a.677.677,0,0,1-.677-.677V111.121a.677.677,0,0,1,.677-.677H193.264a.677.677,0,0,1,.677.677v52.622A.677.677,0,0,1,193.264,164.421ZM74.058,163.067H192.587V111.8H74.058Z"/>
      <rect id="Rectangle_31" data-name="Rectangle 31" class="cls-9" width="21.524" height="24.381" transform="translate(85.63 118.041)"/>
      <path id="Path_463" data-name="Path 463" class="cls-4" d="M107.161,143.1H85.63a.677.677,0,0,1-.677-.677V118.048a.677.677,0,0,1,.677-.677h21.531a.677.677,0,0,1,.677.677v24.375A.677.677,0,0,1,107.161,143.1Zm-20.854-1.354h20.177V118.725H86.307Z"/>
      <rect id="Rectangle_32" data-name="Rectangle 32" class="cls-10" width="21.524" height="24.381" transform="translate(91.114 114.994)"/>
      <path id="Path_464" data-name="Path 464" class="cls-4" d="M112.638,140.046H91.114a.677.677,0,0,1-.677-.677V114.994a.677.677,0,0,1,.677-.677h21.524a.677.677,0,0,1,.677.677v24.375A.677.677,0,0,1,112.638,140.046Zm-20.847-1.354h20.17V115.671H91.791Z"/>
      <path id="Path_465" data-name="Path 465" class="cls-7" d="M127.087,140.026a40.292,40.292,0,0,1-2.282-4.861,25.1,25.1,0,0,1,0-3.913,1.1,1.1,0,0,0-1.984-.677,7.856,7.856,0,0,0-.677,3.047s-2.857-6.094-3.812-5.809-3.433,2.952-3.433,3.717,4.577,8.673,6.486,11.246Z"/>
      <path id="Path_466" data-name="Path 466" class="cls-4" d="M121.372,143.465a.677.677,0,0,1-.548-.278c-1.483-2.031-6.615-10.468-6.615-11.646s2.749-4.015,3.913-4.367c.406-.122,1.286-.386,3.656,4.2a3.764,3.764,0,0,1,.487-1.171,1.747,1.747,0,0,1,2.031-.623,1.686,1.686,0,0,1,1.144,1.74,25.729,25.729,0,0,0,0,3.758,36.305,36.305,0,0,0,2.214,4.624.738.738,0,0,1,.047.535.677.677,0,0,1-.352.4L121.63,143.4A.677.677,0,0,1,121.372,143.465Zm-5.8-11.93a88.256,88.256,0,0,0,6.012,10.393l4.57-2.207a30.251,30.251,0,0,1-2.031-4.475,26.954,26.954,0,0,1,0-4.062.339.339,0,0,0-.257-.339.447.447,0,0,0-.494.122,7.089,7.089,0,0,0-.569,2.708.676.676,0,0,1-1.286.257,25.89,25.89,0,0,0-3.155-5.417A9.852,9.852,0,0,0,115.577,131.535Z"/>
      <ellipse id="Ellipse_14" data-name="Ellipse 14" class="cls-7" cx="5.376" cy="4.631" rx="5.376" ry="4.631" transform="translate(168.91 109.659)"/>
      <path id="Path_467" data-name="Path 467" class="cls-4" d="M174.286,119.6c-3.331,0-6.046-2.377-6.046-5.308s2.708-5.308,6.046-5.308,6.053,2.383,6.053,5.308S177.624,119.6,174.286,119.6Zm0-9.262c-2.586,0-4.692,1.774-4.692,3.954s2.106,3.954,4.692,3.954,4.7-1.774,4.7-3.954-2.106-3.927-4.7-3.927Z"/>
      <path id="Path_468" data-name="Path 468" class="cls-7" d="M151.258,94.432c-4.611,7.915-7.759,3.433-8.7,1.876V113.18a16.2,16.2,0,0,0,14.794,16.141v3.46a2.769,2.769,0,1,0,5.532,0v-3.243c9.831-.372,14.632-8.8,14.632-16.358l-2.539-15S168.531,103.179,151.258,94.432Z"/>
      <path id="Path_469" data-name="Path 469" class="cls-4" d="M160.121,136.227a3.446,3.446,0,0,1-3.446-3.446v-2.85a16.988,16.988,0,0,1-14.8-16.751V96.307a.677.677,0,0,1,1.259-.352c.948,1.564,1.95,2.356,2.979,2.356h0c1.354,0,2.952-1.476,4.55-4.218a.677.677,0,0,1,.887-.264c16.568,8.4,22.939,3.846,23.021,3.8a.692.692,0,0,1,1.1.427l2.512,15.018a.6.6,0,0,1,0,.115,18.592,18.592,0,0,1-3.771,11.28,14.787,14.787,0,0,1-10.833,5.715v2.607a3.446,3.446,0,0,1-3.453,3.44ZM143.195,98.311v14.9a15.627,15.627,0,0,0,14.219,15.471.677.677,0,0,1,.616.677v3.46a2.092,2.092,0,1,0,4.178,0v-3.243a.677.677,0,0,1,.677-.677c9.154-.345,13.954-8.125,13.982-15.627l-2.37-14c-2.336,1.077-9.269,2.878-22.953-3.913-1.774,2.864-3.582,4.327-5.376,4.347h-.034a4.062,4.062,0,0,1-2.9-1.388Z"/>
      <ellipse id="Ellipse_15" data-name="Ellipse 15" class="cls-7" cx="4.245" cy="4.631" rx="4.245" ry="4.631" transform="translate(141.461 108.955)"/>
      <path id="Path_470" data-name="Path 470" class="cls-4" d="M145.706,118.894a5.323,5.323,0,1,1,4.922-5.308,5.125,5.125,0,0,1-4.922,5.308Zm0-9.262a3.974,3.974,0,1,0,3.568,3.954,3.778,3.778,0,0,0-3.568-3.954Z"/>
      <path id="Path_471" data-name="Path 471" class="cls-8" d="M147.365,113.688a48.635,48.635,0,0,1-2.708-10.393,3.467,3.467,0,0,1-2.85-.928,5.247,5.247,0,0,1-1.314-2.708,9.689,9.689,0,0,1,1.869-7.685,10.732,10.732,0,0,1,5.281-3.758c.643-.183,5.9-.21,5.8.034A9.717,9.717,0,0,1,159,83.375c9.086-3.67,18.1.278,21.788,9.229a32.476,32.476,0,0,1,2.031,13.4c-.122,4.74-.867,9.554-3.284,13.609-4.624,7.766-15.072,9.147-22.723,5.092C152.423,122.354,149.342,118.312,147.365,113.688Z"/>
      <path id="Path_472" data-name="Path 472" class="cls-4" d="M165.829,127.554a20.082,20.082,0,0,1-9.3-2.261c-4.191-2.207-7.576-6.128-9.791-11.334h0a44.236,44.236,0,0,1-2.62-9.967,4.022,4.022,0,0,1-2.776-1.144,5.938,5.938,0,0,1-1.5-3.06,10.407,10.407,0,0,1,2.031-8.226,11.355,11.355,0,0,1,5.633-4.008,37.239,37.239,0,0,1,5.593-.068,10.64,10.64,0,0,1,5.687-4.74c9.3-3.751,18.836.278,22.675,9.6a33.318,33.318,0,0,1,2.1,13.677c-.156,5.9-1.226,10.325-3.385,13.934C177.008,125.259,171.408,127.554,165.829,127.554Zm-21.152-24.937a.677.677,0,0,1,.677.555l.095.521a43.882,43.882,0,0,0,2.546,9.73h0c2.106,4.922,5.281,8.612,9.174,10.677,6.933,3.663,17.245,2.857,21.829-4.841,2.031-3.385,3.04-7.624,3.189-13.277a31.958,31.958,0,0,0-2-13.128C176.588,84.12,168,80.477,159.275,84a9.033,9.033,0,0,0-5.18,4.5h0a.677.677,0,0,1-.887.366l-.088-.041a33.977,33.977,0,0,0-5.268.034,10.068,10.068,0,0,0-4.922,3.521,8.985,8.985,0,0,0-1.754,7.15,4.577,4.577,0,0,0,1.131,2.377,2.8,2.8,0,0,0,2.3.731Z"/>
      <path id="Path_473" data-name="Path 473" class="cls-4" d="M169.12,164.421a.677.677,0,0,1-.677-.677V141.63a.677.677,0,1,1,1.354,0v22.113A.677.677,0,0,1,169.12,164.421Z"/>
      <path id="Path_474" data-name="Path 474" class="cls-5" d="M172.722,132.118H151.78c-5.545,0-13.257,13.21-15.634,15.81-2.248-2.153-8.037-8.585-9.249-10.1l-7.191,3.717c.474,1.1,4.807,15.634,12.187,19.581a8.443,8.443,0,0,0,4,1,9.107,9.107,0,0,0,2.972-.5,24.284,24.284,0,0,0,7.9-4.855v6.974h31.342V137.527A5.417,5.417,0,0,0,172.722,132.118Z"/>
      <path id="Path_475" data-name="Path 475" class="cls-4" d="M178.132,164.421H146.79a.677.677,0,0,1-.677-.677v-5.45a27.442,27.442,0,0,1-7.008,3.974,9.391,9.391,0,0,1-7.509-.542c-4.536-2.417-8.66-8.863-12.242-19.161-.135-.379-.223-.636-.271-.752a.677.677,0,0,1,.311-.867l7.218-3.717a.677.677,0,0,1,.84.176c1.09,1.395,6.141,7.021,8.639,9.52.515-.677,1.192-1.6,1.95-2.668,3.643-5.105,9.141-12.824,13.731-12.824h20.949a6.094,6.094,0,0,1,6.094,6.094v26.216a.677.677,0,0,1-.684.677Zm-30.665-1.354h29.988V137.527a4.74,4.74,0,0,0-4.74-4.74H151.78c-3.893,0-9.364,7.671-12.627,12.255-1.077,1.5-1.923,2.708-2.505,3.338a.687.687,0,0,1-.968.034c-2.106-2.031-7.224-7.692-8.951-9.736l-6.209,3.2.088.244c3.467,9.967,7.373,16.162,11.6,18.416a8.05,8.05,0,0,0,6.439.447,24.529,24.529,0,0,0,7.631-4.679.675.675,0,0,1,1.165.467Z"/>
      <path id="Path_476" data-name="Path 476" class="cls-4" d="M146.79,157.447a.677.677,0,0,1-.677-.677V142.788a.677.677,0,1,1,1.354,0V156.77A.677.677,0,0,1,146.79,157.447Z"/>
      <path id="Path_477" data-name="Path 477" class="cls-4" d="M159.431,136.769h25.661a7.1,7.1,0,0,1,7.1,7.1V163.71H152.342V143.872a7.1,7.1,0,0,1,7.089-7.1Z"/>
      <path id="Path_478" data-name="Path 478" class="cls-4" d="M192.194,164.421H152.342a.677.677,0,0,1-.677-.677V143.905a7.793,7.793,0,0,1,7.766-7.813h25.661a7.793,7.793,0,0,1,7.78,7.786v19.838a.677.677,0,0,1-.677.7Zm-39.189-1.354h38.512V143.905a6.439,6.439,0,0,0-6.425-6.432H159.431a6.439,6.439,0,0,0-6.425,6.432Z"/>
      <path id="Path_479" data-name="Path 479" class="cls-3" d="M164.685,136.769h25.661a7.1,7.1,0,0,1,7.1,7.1V163.71H157.576V143.872A7.1,7.1,0,0,1,164.685,136.769Z"/>
      <path id="Path_480" data-name="Path 480" class="cls-4" d="M197.449,164.421H157.576a.677.677,0,0,1-.677-.677V143.905a7.793,7.793,0,0,1,7.786-7.786h25.654a7.793,7.793,0,0,1,7.786,7.786v19.838A.677.677,0,0,1,197.449,164.421Zm-39.2-1.354h38.519V143.905a6.439,6.439,0,0,0-6.432-6.432H164.685a6.439,6.439,0,0,0-6.432,6.432Z"/>
      <path id="Path_481" data-name="Path 481" class="cls-4" d="M108.494,134.061H95.217a.677.677,0,0,1,0-1.354h13.277a.677.677,0,0,1,0,1.354Z"/>
      <path id="Path_482" data-name="Path 482" class="cls-4" d="M108.494,129.87H95.217a.677.677,0,1,1,0-1.354h13.277a.677.677,0,1,1,0,1.354Z"/>
      <path id="Path_483" data-name="Path 483" class="cls-4" d="M108.494,125.679H95.217a.677.677,0,0,1,0-1.354h13.277a.677.677,0,1,1,0,1.354Z"/>
      <path id="Path_484" data-name="Path 484" class="cls-4" d="M108.494,121.481h-7.61a.677.677,0,0,1,0-1.354h7.583a.677.677,0,0,1,0,1.354Z"/>
      <path id="Path_485" data-name="Path 485" class="cls-6" d="M165.883,43.441c-9.7,0-17.557,6.019-17.557,13.447a11.341,11.341,0,0,0,3.108,7.631,13.047,13.047,0,0,1-5.9,5.816s5.674,1.395,10-2.593a21.267,21.267,0,0,0,10.352,2.593c9.7,0,17.557-6.026,17.557-13.447S175.572,43.441,165.883,43.441Z"/>
      <path id="Path_486" data-name="Path 486" class="cls-4" d="M147.948,71.255a11.856,11.856,0,0,1-2.58-.264.677.677,0,0,1-.135-1.266,12.363,12.363,0,0,0,5.376-5.112,11.9,11.9,0,0,1-2.966-7.739c0-7.786,8.179-14.124,18.234-14.124S184.11,49.1,184.11,56.874s-8.179,14.137-18.227,14.137a21.93,21.93,0,0,1-10.258-2.451A11.734,11.734,0,0,1,147.948,71.255Zm-.318-1.354a10.515,10.515,0,0,0,7.448-2.634.677.677,0,0,1,.792-.095,20.488,20.488,0,0,0,10.021,2.505c9.31,0,16.879-5.728,16.879-12.77s-7.583-12.79-16.886-12.79S149,49.846,149,56.874a10.671,10.671,0,0,0,2.932,7.177.677.677,0,0,1,.1.765,13.8,13.8,0,0,1-4.428,5.065Z"/>
      <path id="Path_487" data-name="Path 487" class="cls-4" d="M174.922,53.611H158.131a.677.677,0,1,1,0-1.354h16.791a.677.677,0,1,1,0,1.354Z"/>
      <path id="Path_488" data-name="Path 488" class="cls-4" d="M174.922,58.357H158.131a.677.677,0,1,1,0-1.354h16.791a.677.677,0,1,1,0,1.354Z"/>
      <path id="Path_489" data-name="Path 489" class="cls-4" d="M167.407,63.11h-9.276a.677.677,0,1,1,0-1.354h9.276a.677.677,0,1,1,0,1.354Z"/>
      <path id="Path_490" data-name="Path 490" class="cls-7" d="M90.051,112.232a14.659,14.659,0,0,0,1.137,4.354,3.25,3.25,0,0,0,1.273,1.882,3.135,3.135,0,0,0,1.659.217,11.511,11.511,0,0,0,3.44-.6c2.708-1.029,2.627-2.966,2.031-5.417-.467-2.031-1.652-4.4-3.853-4.97a4.74,4.74,0,0,0-4.97,1.794A4.489,4.489,0,0,0,90.051,112.232Z"/>
      <path id="Path_491" data-name="Path 491" class="cls-4" d="M93.6,119.382a3.027,3.027,0,0,1-1.483-.318,3.832,3.832,0,0,1-1.584-2.241l-.061-.156a14.564,14.564,0,0,1-1.1-4.408,5.213,5.213,0,0,1,.86-3.169,5.417,5.417,0,0,1,5.7-2.065c2.031.528,3.677,2.573,4.347,5.471.535,2.356.833,4.97-2.478,6.222a12.248,12.248,0,0,1-3.643.643C93.958,119.375,93.782,119.382,93.6,119.382Zm1.022-11.158a4.062,4.062,0,0,0-3.291,1.632,3.832,3.832,0,0,0-.63,2.356h0a13.623,13.623,0,0,0,1.043,3.988l.054.156a2.708,2.708,0,0,0,.955,1.517,2.586,2.586,0,0,0,1.307.135,10.481,10.481,0,0,0,3.236-.555c2.119-.8,2.214-2.14,1.639-4.652-.21-.894-1.056-3.873-3.385-4.462a3.67,3.67,0,0,0-.928-.115Z"/>
    </g>
  </g>
</svg>
